<svg width="115" height="120" viewBox="0 0 115 120" fill="none" xmlns="http://www.w3.org/2000/svg">
<g clip-path="url(#clip0_7_27)">
<path d="M114.813 99.6C114.064 96.6667 111.256 94.8267 108.26 95.28L104.396 95.88C102.002 92.64 98.0576 90.84 93.9791 91.24L73.8273 93.24C73.6401 90.24 71.8081 87.44 68.9064 86.1867L48.6209 77.5067C44.7296 75.84 40.3703 75.6667 36.3453 77L20.4459 82.3333C19.7105 82.5733 18.9483 82.7067 18.1727 82.7067H15.0035V82.1867C15.0035 81.08 14.1076 80.1867 13.011 80.1867H1.99244C0.89593 80.1867 0 81.08 0 82.1867V109.053C0 110.16 0.89593 111.053 1.99244 111.053H13.0244C14.1209 111.053 15.0169 110.16 15.0169 109.053V107.88C17.2366 107.893 19.5767 107.933 20.1919 107.96L66.3256 119.827C66.7669 119.933 67.2215 119.987 67.6628 119.987C68.1977 119.987 68.7459 119.92 69.2942 119.76L110.694 106.653C113.756 105.813 115.602 102.653 114.813 99.5733V99.6ZM94.3936 95.2267C96.2657 95.04 98.111 95.5733 99.582 96.64L72.9849 100.8C72.664 100.853 72.3296 100.813 72.0221 100.693L70.6715 100.16C71.6343 99.4267 72.4233 98.4667 72.9983 97.32C73.0384 97.32 73.0785 97.32 73.1186 97.32L94.3802 95.2133L94.3936 95.2267ZM11.032 107.067H3.99826V84.2H11.032V107.067ZM109.571 102.853L68.1709 115.96C67.8767 116.04 67.5558 116.053 67.2884 115.987L21.0076 104.08C20.7535 104.027 20.486 103.96 15.0302 103.92V86.7333H18.1994C19.4029 86.7333 20.593 86.5467 21.7296 86.16L37.6291 80.8267C40.718 79.7867 44.0744 79.92 47.0698 81.2133L67.3552 89.8933C69.4279 90.7733 70.4308 93.2 69.5884 95.2933C68.7326 97.4133 66.3122 98.4667 64.186 97.6267L52.0041 92.8267C50.9744 92.4267 49.8244 92.9333 49.4099 93.96C49.0087 94.9867 49.5035 96.1467 50.5331 96.56L61.0436 100.707L70.5645 104.467C71.5273 104.853 72.5837 104.96 73.6 104.8L108.876 99.28C109.825 99.1333 110.708 99.72 110.935 100.64C111.189 101.613 110.601 102.613 109.558 102.893L109.571 102.853ZM39.5948 39.2267C39.5948 39.3467 39.6081 39.4667 39.6349 39.5867C39.6349 39.6267 39.6483 39.6667 39.6616 39.7067C39.7017 39.8667 39.7552 40.0133 39.8355 40.16C39.8355 40.16 39.8488 40.1867 39.8622 40.1867C39.9157 40.28 39.9826 40.3867 40.0628 40.48L71.4203 77.3333C71.6343 77.6 71.9285 77.7867 72.236 77.8933C72.2895 77.9067 72.3296 77.92 72.3698 77.9467C72.557 78 72.7442 78.04 72.9448 78.04C73.1453 78.04 73.3326 78 73.5198 77.9467C73.5733 77.9333 73.6134 77.92 73.6535 77.8933C73.961 77.7733 74.2419 77.5867 74.4692 77.3333L105.827 40.48C105.907 40.3867 105.974 40.2933 106.027 40.1867C106.027 40.1867 106.041 40.1733 106.054 40.16C106.134 40.0133 106.188 39.8667 106.228 39.7067C106.228 39.6667 106.241 39.6267 106.255 39.5867C106.281 39.4667 106.295 39.3467 106.295 39.2267C106.295 39.1867 106.295 39.1333 106.295 39.0933C106.295 38.9333 106.268 38.7867 106.228 38.6267C106.228 38.6133 106.228 38.6 106.215 38.5867C106.174 38.44 106.108 38.32 106.041 38.1867C106.041 38.1733 106.027 38.1467 106.014 38.1333L95.557 21.0133C95.557 21.0133 95.5436 21 95.5302 20.9867C95.45 20.8533 95.3564 20.7333 95.2494 20.6267C95.2227 20.6 95.1959 20.5867 95.1826 20.5733C95.0889 20.4933 94.9953 20.4133 94.8884 20.36C94.8482 20.3333 94.8081 20.3067 94.768 20.2933C94.6744 20.24 94.5674 20.2 94.4605 20.1733C94.4203 20.16 94.3802 20.1467 94.3401 20.1333C94.193 20.0933 94.0325 20.0667 93.8721 20.0667H52.0709C51.9105 20.0667 51.75 20.0933 51.6029 20.1333C51.5628 20.1333 51.5227 20.16 51.4826 20.1733C51.3756 20.2 51.2686 20.24 51.175 20.2933C51.1349 20.32 51.0948 20.3333 51.0546 20.36C50.9477 20.4267 50.8541 20.5067 50.7605 20.5733C50.7337 20.6 50.707 20.6133 50.6936 20.6267C50.5866 20.7333 50.493 20.8533 50.4128 20.9867C50.4128 20.9867 50.3994 21 50.386 21.0133L39.9291 38.1333C39.9291 38.1333 39.9157 38.1733 39.9023 38.1867C39.8355 38.32 39.7686 38.4533 39.7285 38.5867C39.7285 38.6 39.7285 38.6133 39.7151 38.6267C39.675 38.7733 39.6483 38.9333 39.6483 39.0933V39.2267H39.5948ZM80.7407 41.1867L72.9314 68.72L65.1221 41.1867H80.7407ZM66.0448 37.1867L72.9314 25.9067L79.818 37.1867H66.0314H66.0448ZM84.886 41.1867H99.9564L77.3576 67.7467L84.8994 41.1867H84.886ZM83.375 35.3467L76.4884 24.0667H90.2616L83.375 35.3467ZM62.4744 35.3467L55.5878 24.0667H69.361L62.4744 35.3467ZM60.9767 41.1867L68.5186 67.7467L45.9198 41.1867H60.9901H60.9767ZM86.9453 37.1867L93.832 25.9067L100.719 37.1867H86.932H86.9453ZM52.0308 25.8933L58.9174 37.1733H45.1442L52.0308 25.8933ZM54.4512 4.56C53.9296 3.58667 54.3174 2.37333 55.2936 1.85333C56.2698 1.33333 57.4733 1.72 57.9814 2.69333L61.7924 9.98667C62.3139 10.96 61.9262 12.1733 60.95 12.6933C60.6558 12.8533 60.3349 12.92 60.0273 12.92C59.3052 12.92 58.6099 12.5333 58.2622 11.8533L54.4512 4.56ZM84.057 10.2267L87.868 2.93333C88.3895 1.96 89.5797 1.57333 90.5692 2.09333C91.5453 2.61333 91.9198 3.81333 91.4116 4.78667L87.6006 12.08C87.2395 12.76 86.5442 13.1467 85.8221 13.1467C85.5145 13.1467 85.1936 13.08 84.8994 12.92C83.9233 12.4 83.5488 11.2 84.057 10.2267ZM70.9389 10.2267V2C70.9389 0.893333 71.8349 0 72.9314 0C74.0279 0 74.9238 0.893333 74.9238 2V10.2267C74.9238 11.3333 74.0279 12.2267 72.9314 12.2267C71.8349 12.2267 70.9389 11.3333 70.9389 10.2267Z" fill="#57544F"/>
</g>
<defs>
<clipPath id="clip0_7_27">
<rect width="115" height="120" fill="white"/>
</clipPath>
</defs>
</svg>
