<svg width="60" height="65" viewBox="0 0 60 65" fill="none" xmlns="http://www.w3.org/2000/svg">
<g clip-path="url(#clip0_6_16)">
<path fill-rule="evenodd" clip-rule="evenodd" d="M8.53 13.2H3.72L5.81 23.56C6.31 26.03 7.6 28.13 9.4 29.61C10.23 30.29 11.17 30.84 12.18 31.24C12.65 32.59 13.18 33.89 13.75 35.15C11.33 34.76 9.12 33.73 7.29 32.22C4.91 30.26 3.2 27.49 2.54 24.23L0.07 11.98C0.03 11.83 0 11.67 0 11.5C0 10.56 0.75 9.81 1.67 9.81H8.25C8.32 10.93 8.41 12.06 8.52 13.2H8.53ZM51.47 13.2H56.28L54.19 23.56C53.69 26.03 52.4 28.13 50.6 29.61C49.77 30.29 48.83 30.84 47.82 31.24C47.35 32.59 46.82 33.89 46.25 35.15C48.67 34.76 50.88 33.73 52.71 32.22C55.09 30.26 56.8 27.49 57.46 24.23L59.93 11.97C59.97 11.82 60 11.66 60 11.49C60 10.55 59.25 9.8 58.33 9.8H51.75C51.68 10.92 51.59 12.05 51.48 13.19L51.47 13.2ZM15.37 65H44.62V63.28C44.62 61.5 43.26 60.03 41.5 59.9C36.81 59.57 33.08 55.59 33.08 50.77V48.11C32.14 48.35 31.16 48.5 30.14 48.54H30H29.86C28.84 48.5 27.86 48.35 26.92 48.11V50.77C26.92 55.59 23.18 59.57 18.5 59.9C16.74 60.02 15.38 61.5 15.38 63.28V65H15.37ZM48.7 0C48.7 32.18 39.35 44.76 30 45.16C20.65 44.76 11.3 32.17 11.3 0H48.7Z" fill="#57544F"/>
</g>
<defs>
<clipPath id="clip0_6_16">
<rect width="60" height="65" fill="white"/>
</clipPath>
</defs>
</svg>
