<svg width="56" height="70" viewBox="0 0 56 70" fill="none" xmlns="http://www.w3.org/2000/svg">
<g clip-path="url(#clip0_6_19)">
<path d="M29.12 13.8V12.55C32.54 11.93 34.81 8.63 34.19 5.2C33.57 1.76 30.29 -0.519999 26.87 0.110001C23.45 0.730001 21.18 4.03 21.8 7.46C22.27 10.05 24.29 12.08 26.87 12.55V13.8C11.42 14.42 -0.600014 27.5 0.0199861 43.02C0.639986 58.53 13.67 70.6 29.12 69.98C44.57 69.36 56.59 56.27 55.97 40.76C55.38 26.12 43.7 14.39 29.12 13.8ZM23.95 6.33C23.95 4.08 25.76 2.25 28 2.25C30.24 2.25 32.06 4.07 32.06 6.31C32.06 8.13 30.86 9.73 29.12 10.23V9.94C29.12 9.32 28.62 8.81 28 8.81C27.38 8.81 26.88 9.32 26.88 9.94V10.23C25.15 9.72 23.96 8.13 23.96 6.32L23.95 6.33ZM28 67.76C13.78 67.76 2.24999 56.18 2.24999 41.91C2.24999 27.63 13.78 16.06 28 16.06C42.21 16.06 53.74 27.62 53.75 41.89C53.75 56.17 42.22 67.75 28 67.77V67.76Z" fill="#57544F"/>
<path d="M28 18.47C15.09 18.47 4.63 28.98 4.63 41.94C4.63 54.9 15.1 65.4 28.01 65.4C40.92 65.4 51.38 54.89 51.38 41.93C51.37 28.97 40.91 18.47 28 18.46V18.47ZM29.42 63.1L28 59.58L26.58 63.1C16.01 62.37 7.6 53.9 6.92 43.28L10.37 41.88L6.93 40.48C7.67 29.89 16.08 21.48 26.63 20.78L28 24.18L29.37 20.78C39.92 21.48 48.33 29.89 49.07 40.48L45.64 41.88L49.09 43.28C48.4 53.9 40 62.36 29.43 63.1H29.42Z" fill="#57544F"/>
<path d="M43.6 41.56H32.42C32.39 41.25 32.34 40.95 32.25 40.65L40.81 29.07L29.2 37.59C28.93 37.51 28.65 37.46 28.38 37.44V26.27C28.38 26.06 28.21 25.89 28.01 25.89C27.81 25.89 27.64 26.06 27.64 26.27V37.44C25.47 37.63 23.75 39.37 23.6 41.56H12.41C12.2 41.56 12.04 41.73 12.04 41.94C12.04 42.15 12.21 42.32 12.41 42.32H23.61C23.63 42.58 23.68 42.83 23.76 43.07L15.22 54.68L26.82 46.16C27.09 46.24 27.37 46.29 27.64 46.31V57.6C27.64 57.81 27.81 57.98 28.01 57.98C28.21 57.98 28.38 57.81 28.38 57.6V46.31C30.51 46.13 32.21 44.45 32.42 42.31H43.61C43.82 42.31 43.98 42.14 43.98 41.93C43.98 41.72 43.81 41.55 43.61 41.55L43.6 41.56ZM28 44.07C26.79 44.07 25.81 43.09 25.81 41.87C25.81 40.66 26.79 39.67 28 39.67C29.21 39.67 30.19 40.65 30.19 41.87C30.19 43.08 29.21 44.06 28.01 44.06L28 44.07Z" fill="#57544F"/>
</g>
<defs>
<clipPath id="clip0_6_19">
<rect width="56" height="70" fill="white"/>
</clipPath>
</defs>
</svg>
