<svg width="60" height="60" viewBox="0 0 60 60" fill="none" xmlns="http://www.w3.org/2000/svg">
<g clip-path="url(#clip0_13_101)">
<path d="M30 60C46.57 60 60 46.57 60 30C60 13.43 46.57 0 30 0C13.43 0 0 13.43 0 30C0 46.57 13.43 60 30 60Z" fill="#57544F"/>
<path d="M18.7425 28.46C17.7525 29.45 17.7525 30.98 18.7425 31.86L27.1925 39.98C29.4925 42.28 33.0025 38.77 30.7025 36.47L27.8525 33.62C27.1925 32.96 27.4125 32.41 28.2925 32.41H39.5925C40.9125 32.41 42.0025 31.31 42.0025 30C42.0025 28.69 40.9025 27.59 39.5925 27.59H28.2925C27.4125 27.59 27.1925 27.04 27.8525 26.38L30.7025 23.53C33.0025 21.23 29.4925 17.72 27.1925 20.02L18.7425 28.47V28.46Z" fill="#F29100"/>
</g>
<defs>
<clipPath id="clip0_13_101">
<rect width="60" height="60" fill="white"/>
</clipPath>
</defs>
</svg>
