<svg width="180" height="100" viewBox="0 0 180 100" fill="none" xmlns="http://www.w3.org/2000/svg">
<g clip-path="url(#clip0_3_70)">
<path fill-rule="evenodd" clip-rule="evenodd" d="M136.63 0C138.95 0 141.28 0.17 143.6 0.52C149.82 1.47 155.91 3.87 161.15 7.43C178.36 19.14 184.73 41.73 176.3 61.15C170.96 73.46 161.97 82.39 158.02 85.92L152.97 77.62C152.55 76.94 152.68 76.13 153.27 75.6L157.06 72.2C160.42 69.23 161.67 64.4 160.13 60.17C158.14 54.83 153.15 53.97 149.44 54.42C147.67 46.12 143.67 39.83 137.54 35.68C125.73 27.69 109.92 30.3 106.21 31.06C104.17 30.12 102.23 28.95 100.46 27.55C98 25.58 97.5 22.99 97.53 21.17C97.56 17.9 99.29 14.48 101.92 12.46C102.03 12.38 108.66 7.38 119.5 3.25C124.95 1.1 130.77 0 136.63 0Z" fill="#F29100"/>
<path fill-rule="evenodd" clip-rule="evenodd" d="M71.82 35.45V51.51C71.82 51.99 71.98 52.48 72.26 52.87L77.31 59.97C77.66 60.49 77.62 61.22 77.16 61.68L72.51 66.35C72.07 66.78 71.83 67.39 71.83 68V82.68C71.62 85.01 69.57 86.86 67.13 86.89L52.76 87.12C51.51 87.14 50.5 88.17 50.5 89.45V99.86C50.5 99.94 50.44 100 50.36 100H25.07C24.99 100 24.93 99.94 24.93 99.86V89.97L30.95 80.1C32.53 77.52 32.04 74.17 29.78 72.15L26 68.76C24.03 67.03 23.31 64.25 24.19 61.83C25.74 57.69 31.1 59.26 31.7 59.45C32.33 59.65 33.03 59.57 33.6 59.21C34.16 58.85 34.56 58.27 34.66 57.6C35.93 49.45 39.41 43.41 45.01 39.61C54.35 33.24 67.27 34.69 71.83 35.47L71.82 35.45Z" fill="#57544F"/>
<path fill-rule="evenodd" clip-rule="evenodd" d="M108.22 35.44C112.81 34.66 125.68 33.24 135.01 39.57C140.61 43.36 144.08 49.41 145.36 57.56C145.47 58.23 145.85 58.82 146.43 59.18C147 59.54 147.7 59.62 148.33 59.41C148.92 59.22 154.28 57.66 155.84 61.82C156.71 64.22 156 67 154.04 68.73L150.24 72.15C147.97 74.16 147.48 77.51 149.07 80.1L155.12 90.04V99.86C155.12 99.94 155.06 100 154.98 100H129.69C129.62 100 129.55 99.94 129.55 99.86V89.45C129.55 88.18 128.54 87.14 127.28 87.12L112.92 86.89C110.47 86.86 108.43 85.02 108.21 82.68V68C108.21 67.38 107.97 66.78 107.53 66.35L102.87 61.67C102.42 61.22 102.37 60.48 102.75 59.93L107.78 52.86C108.06 52.47 108.21 51.98 108.21 51.5V35.44H108.22Z" fill="#57544F"/>
<path fill-rule="evenodd" clip-rule="evenodd" d="M28.86 54.34C25.46 54.34 21.57 55.63 19.87 60.17C18.33 64.42 19.56 69.26 22.94 72.23L26.71 75.61C27.3 76.14 27.43 76.96 27.02 77.62L21.97 85.92C18.02 82.38 9.01999 73.43 3.68999 61.15C-4.73001 41.74 1.63999 19.14 18.85 7.43001C24.14 3.86001 30.24 1.47001 36.46 0.52001C44.61 -0.69999 52.93 0.24001 60.52 3.25001C71.29 7.37001 77.95 12.34 78.12 12.47C80.76 14.49 82.47 17.9 82.5 21.17C82.52 22.99 82.01 25.59 79.52 27.57C77.75 28.96 75.82 30.13 73.77 31.07C70.07 30.31 54.25 27.69 42.44 35.69C36.3 39.84 32.31 46.14 30.54 54.43C30 54.36 29.44 54.34 28.86 54.34Z" fill="#F29100"/>
</g>
<defs>
<clipPath id="clip0_3_70">
<rect width="180" height="100" fill="white"/>
</clipPath>
</defs>
</svg>
