<svg width="170" height="120" viewBox="0 0 170 120" fill="none" xmlns="http://www.w3.org/2000/svg">
<g clip-path="url(#clip0_10_30)">
<path d="M136.475 25.0576C136.892 24.6102 137.106 24.0305 137.086 23.4203C137.066 22.8102 136.801 22.2407 136.352 21.8237C135.925 21.4271 135.375 21.2136 134.794 21.2136C134.763 21.2136 134.743 21.2136 134.712 21.2136C128.692 21.4271 116.111 22.8305 99.4248 29.817C98.4162 30.2339 97.8458 31.3119 98.0699 32.3695C98.3449 33.722 99.8526 34.5763 101.218 34.0271C117.16 27.3458 129.15 25.9932 134.865 25.7797C135.487 25.7593 136.047 25.4949 136.465 25.0475L136.475 25.0576Z" fill="#57544F"/>
<path d="M98.08 50.0644C98.294 51.122 99.2414 51.8949 100.331 51.8949C100.668 51.8949 100.932 51.8441 101.218 51.722C117.181 45.0407 129.16 43.678 134.886 43.4644C136.149 43.4237 137.147 42.3559 137.106 41.0949C137.086 40.4848 136.821 39.9153 136.373 39.5085C135.945 39.1119 135.395 38.8983 134.814 38.8983C134.784 38.8983 134.763 38.8983 134.733 38.8983C128.712 39.1119 116.131 40.5153 99.4451 47.5017C98.4468 47.9288 97.8763 49.0068 98.0902 50.0644H98.08Z" fill="#57544F"/>
<path d="M136.475 60.4474C136.892 60 137.106 59.4203 137.086 58.8102C137.066 58.2 136.801 57.6305 136.363 57.2135C135.925 56.7966 135.334 56.583 134.723 56.6034C127.398 56.8576 115.327 58.5559 99.4349 65.2068C98.4366 65.6237 97.8661 66.6915 98.08 67.7593C98.294 68.8271 99.2414 69.6 100.331 69.6C100.647 69.6 100.943 69.539 101.218 69.4271C117.181 62.7457 129.16 61.383 134.886 61.1695C135.507 61.1491 136.067 60.8847 136.485 60.4373L136.475 60.4474Z" fill="#57544F"/>
<path d="M134.875 78.8644C135.487 78.8441 136.057 78.5797 136.475 78.1322C136.892 77.6848 137.106 77.1051 137.086 76.4949C137.066 75.8848 136.801 75.3153 136.363 74.8983C135.914 74.4814 135.334 74.2577 134.723 74.2882L133.745 74.3187C126.329 74.6949 114.603 76.5356 99.4451 82.8814C98.4468 83.3085 97.8662 84.3865 98.0903 85.4441C98.3042 86.5119 99.2516 87.2848 100.342 87.2848C100.637 87.2848 100.943 87.2238 101.228 87.1017L102.644 86.5119V86.5322C117.894 80.3492 129.344 79.0678 134.896 78.8644H134.875Z" fill="#57544F"/>
<path d="M71.9301 50.0542C72.1339 49.0271 71.6041 47.9797 70.6567 47.5424L70.5651 47.5017C53.8381 40.4949 41.2776 39.1017 35.2876 38.8983C34.6866 38.878 34.0957 39.0915 33.6475 39.5085C33.1993 39.9254 32.9446 40.4949 32.9141 41.1051C32.8937 41.7152 33.1178 42.3051 33.5355 42.7525C33.9429 43.1898 34.5236 43.4542 35.1348 43.4746C40.8395 43.678 52.799 45.0203 68.8027 51.7322C69.0676 51.8441 69.3732 51.9051 69.689 51.9051C70.779 51.9051 71.7162 51.1322 71.9403 50.0644L71.9301 50.0542Z" fill="#57544F"/>
<path d="M33.5253 25.0576C33.9429 25.5051 34.5032 25.7593 35.1246 25.7796C40.8293 25.983 52.7888 27.3254 68.7925 34.0373C69.0778 34.1593 69.363 34.2101 69.689 34.2203C70.779 34.2203 71.7264 33.4474 71.9301 32.3898C72.144 31.3525 71.6041 30.3051 70.6567 29.8678L70.5549 29.8271C53.8279 22.8203 41.2674 21.4271 35.2774 21.2237C34.6764 21.1932 34.0856 21.4169 33.6373 21.8339C33.1891 22.2508 32.9344 22.8203 32.9039 23.4305C32.8835 24.0407 33.1076 24.6305 33.5151 25.0678L33.5253 25.0576Z" fill="#57544F"/>
<path d="M33.5253 60.4373C33.9022 60.8441 34.4014 61.0983 34.9413 61.1593H35.1348C40.8395 61.3729 52.799 62.7152 68.8027 69.4169C69.0778 69.5288 69.3834 69.6 69.689 69.6C70.7688 69.6 71.7162 68.8271 71.9403 67.7593C72.1542 66.7017 71.5838 65.6237 70.5753 65.1966C54.6836 58.5458 42.6222 56.8475 35.2876 56.5932C34.6866 56.5627 34.0957 56.7864 33.6475 57.2034C33.1993 57.6203 32.9446 58.1898 32.9141 58.8C32.8937 59.4 33.1178 60 33.5253 60.4271V60.4373Z" fill="#57544F"/>
<path d="M33.5253 78.1322C33.9429 78.5796 34.5032 78.8339 35.1246 78.8644C40.8293 79.0678 52.7888 80.4102 68.7925 87.122C69.0166 87.2135 69.2509 87.2746 69.4954 87.2949H69.6788C69.6788 87.2949 69.6788 87.2949 69.689 87.2949C70.7688 87.2949 71.706 86.5322 71.9199 85.4644C72.1339 84.3966 71.5634 83.3186 70.5651 82.9017C54.6734 76.2508 42.6019 74.5525 35.2774 74.2983C34.0448 74.2373 32.9446 75.2441 32.9039 76.5051C32.8835 77.1152 33.1076 77.7152 33.5151 78.1424L33.5253 78.1322Z" fill="#57544F"/>
<path d="M167.708 13.2305H152.397V2.66443C152.397 1.4746 151.47 0.477991 150.278 0.376296C139.643 -0.437264 129.527 0.0915497 120.216 1.95257C112.739 3.43731 105.73 5.79664 99.3942 8.94918C92.7727 12.2441 88.2802 15.7221 85.6723 18.061L84.9898 18.6712L84.3073 18.061C81.7096 15.7221 77.2172 12.2441 70.5855 8.94918C64.2695 5.79664 57.2609 3.44748 49.7633 1.95257C40.4626 0.0813802 30.347 -0.447433 19.7118 0.376296C18.5301 0.467821 17.6031 1.4746 17.6031 2.66443V13.2407H2.29207C1.02888 13.2407 0 14.2678 0 15.5187V117.722C0 118.983 1.02888 120 2.29207 120H167.708C168.319 120 168.9 119.766 169.328 119.329C169.756 118.902 170 118.312 170 117.722V15.5187C170 14.9187 169.756 14.3288 169.328 13.9119C168.9 13.4848 168.319 13.2407 167.708 13.2407V13.2305ZM4.58413 115.434V17.8068H17.5929V100.709C17.5929 101.97 18.6218 102.986 19.8849 102.986H20.7712C35.7359 102.986 48.9789 105.234 63.6991 110.268C66.6329 111.275 69.4547 112.353 72.0727 113.481L76.5958 115.434H4.58413ZM82.7079 113.624L81.2003 112.81C76.5346 110.288 71.1457 107.98 65.1864 105.946C50.6699 100.983 37.7121 98.6644 23.1753 98.4407L22.177 98.4204V4.78986L23.1448 4.73901C44.4661 3.6407 59.4104 8.5424 68.1915 12.8441C76.0762 16.7187 80.752 20.9085 82.4023 22.5356L82.7079 22.8305V113.624ZM88.7997 112.81L87.2921 113.624V22.8305L87.5977 22.5356C90.9492 19.2204 109.551 2.8068 146.865 4.73901L147.833 4.78986V98.4204L146.835 98.4407C132.298 98.6746 119.34 100.993 104.824 105.946C98.8237 108 93.4348 110.309 88.8099 112.81H88.7997ZM165.416 115.434H93.4042L97.9374 113.481C100.545 112.363 103.357 111.285 106.291 110.278C121.011 105.244 134.254 102.997 149.229 102.997H150.115C150.726 102.997 151.307 102.763 151.735 102.325C152.163 101.888 152.407 101.319 152.407 100.719V17.8068H165.426V115.434H165.416Z" fill="#57544F"/>
</g>
<defs>
<clipPath id="clip0_10_30">
<rect width="170" height="120" fill="white"/>
</clipPath>
</defs>
</svg>
