<svg width="60" height="52" viewBox="0 0 60 52" fill="none" xmlns="http://www.w3.org/2000/svg">
<g clip-path="url(#clip0_1_33)">
<path d="M34.06 52C33.25 52 32.43 51.69 31.81 51.07C30.57 49.83 30.57 47.81 31.81 46.56L49.14 29.19L3.18 29.19C1.42 29.19 0 27.76 0 26C0 24.24 1.42 22.81 3.18 22.81L49.15 22.81L31.82 5.44C30.58 4.2 30.58 2.18 31.82 0.93C33.06 -0.31 35.07 -0.31 36.31 0.93L59.07 23.74C59.38 24.05 59.61 24.4 59.76 24.78C59.91 25.15 60 25.56 60 25.98V26C60 26.43 59.91 26.83 59.76 27.2C59.6 27.58 59.38 27.93 59.07 28.24L36.31 51.07C35.69 51.69 34.88 52 34.06 52Z" fill="white"/>
</g>
<defs>
<clipPath id="clip0_1_33">
<rect width="60" height="52" fill="white"/>
</clipPath>
</defs>
</svg>
