<svg width="82" height="120" viewBox="0 0 82 120" fill="none" xmlns="http://www.w3.org/2000/svg">
<g clip-path="url(#clip0_11_41)">
<path d="M78.78 30.7C77.87 27.3 78.25 23.36 76.51 20.38C74.75 17.36 71.11 15.73 68.65 13.27C66.18 10.82 64.54 7.2 61.5 5.45C58.5 3.73 54.54 4.1 51.12 3.2C47.81 2.32 44.58 0 41 0C37.42 0 34.18 2.32 30.88 3.2C27.46 4.11 23.5 3.73 20.5 5.45C17.46 7.2 15.82 10.82 13.35 13.27C10.88 15.72 7.25 17.36 5.49 20.38C3.76 23.36 4.14 27.3 3.22 30.7C2.34 33.99 0 37.2 0 40.77C0 44.34 2.34 47.55 3.22 50.84C4.13 54.24 3.75 58.18 5.49 61.16C7.25 64.18 10.89 65.81 13.35 68.27C15.82 70.72 17.46 74.34 20.5 76.09C23.5 77.81 27.46 77.44 30.88 78.34C34.19 79.22 37.42 81.54 41 81.54C44.58 81.54 47.82 79.22 51.12 78.34C54.54 77.43 58.5 77.81 61.5 76.09C64.54 74.34 66.18 70.72 68.65 68.27C71.12 65.82 74.75 64.18 76.51 61.16C78.24 58.18 77.86 54.24 78.78 50.84C79.66 47.55 82 44.34 82 40.77C82 37.2 79.66 33.99 78.78 30.7ZM41 73.31C22.93 73.31 8.28 58.74 8.28 40.78C8.28 22.82 22.93 8.24 41 8.24C59.07 8.24 73.72 22.81 73.72 40.77C73.72 58.73 59.07 73.3 41 73.3V73.31Z" fill="#57544F"/>
<path d="M41 70.28C36.99 70.28 33.11 69.5 29.45 67.96C25.92 66.47 22.74 64.35 20.02 61.64C17.3 58.93 15.16 55.77 13.66 52.26C12.11 48.62 11.33 44.75 11.33 40.77C11.33 36.79 12.11 32.92 13.66 29.28C15.15 25.77 17.29 22.61 20.02 19.9C22.74 17.19 25.92 15.06 29.45 13.58C33.11 12.04 37 11.26 41 11.26C45 11.26 48.89 12.04 52.55 13.58C56.08 15.07 59.26 17.19 61.98 19.9C64.7 22.61 66.84 25.77 68.34 29.28C69.89 32.92 70.67 36.79 70.67 40.77C70.67 44.75 69.89 48.62 68.34 52.26C66.85 55.77 64.71 58.93 61.98 61.64C59.26 64.35 56.08 66.48 52.55 67.96C48.89 69.5 45 70.28 41 70.28ZM41 14.61C37.45 14.61 34 15.3 30.76 16.66C27.63 17.98 24.81 19.86 22.4 22.27C19.98 24.67 18.09 27.47 16.76 30.59C15.39 33.81 14.69 37.24 14.69 40.77C14.69 44.3 15.39 47.73 16.76 50.95C18.08 54.06 19.98 56.86 22.4 59.27C24.82 61.67 27.63 63.56 30.76 64.88C34 66.24 37.45 66.93 41 66.93C44.55 66.93 48 66.24 51.24 64.88C54.37 63.56 57.19 61.68 59.6 59.27C62.02 56.87 63.91 54.07 65.24 50.95C66.61 47.73 67.31 44.3 67.31 40.77C67.31 37.24 66.61 33.81 65.24 30.59C63.92 27.48 62.02 24.68 59.6 22.27C57.18 19.87 54.37 17.98 51.24 16.66C48 15.3 44.55 14.61 41 14.61Z" fill="#57544F"/>
<path d="M37.9 59.21C36.35 59.21 34.94 58.35 34.23 56.97C32.93 54.44 29.2 48.02 22.64 42.91C22 42.41 21.74 41.55 22 40.78C22.26 40.01 22.99 39.49 23.8 39.48C23.85 39.48 23.91 39.48 23.96 39.48C26.67 39.48 29.37 40.26 31.78 41.73C33.56 42.82 35.2 44.3 36.62 46.08C38.42 42.71 40.9 38.99 43.54 35.75C46.24 32.44 50.36 28.04 54.73 25.91C54.98 25.79 55.25 25.72 55.53 25.72C56.23 25.72 56.87 26.14 57.17 26.78C57.46 27.43 57.35 28.16 56.88 28.7C48.78 37.86 44.85 47.43 41.82 56.41C41.31 57.91 39.96 59 38.38 59.18C38.22 59.2 38.06 59.21 37.91 59.21H37.9Z" fill="#F29100"/>
<path d="M43.13 83.77L30.9 118.95C30.47 120.18 28.82 120.38 28.1 119.3L21.26 108.97C20.87 108.38 20.12 108.12 19.45 108.35L7.65002 112.27C6.41002 112.68 5.24002 111.5 5.67002 110.28L17.32 76.76C17.91 77.29 18.56 77.78 19.28 78.19C21.58 79.51 24.11 79.81 26.56 80.09C27.88 80.24 29.13 80.39 30.25 80.69C31.31 80.97 32.42 81.45 33.6 81.96C35.78 82.9 38.25 83.97 41 83.97C41.73 83.97 42.44 83.9 43.13 83.77Z" fill="#57544F"/>
<path d="M68.01 107.66L56.17 103.88C55.49 103.66 54.75 103.93 54.37 104.52L47.65 114.93C46.95 116.02 45.29 115.83 44.85 114.61L39.61 100.11L45.52 83.1101C46.53 82.7601 47.49 82.3401 48.4 81.9501C49.58 81.4401 50.69 80.9601 51.75 80.6801C52.88 80.3801 54.12 80.2401 55.44 80.0801C57.09 79.8901 58.78 79.6901 60.4 79.1801L69.96 105.64C70.4 106.86 69.24 108.05 68 107.66H68.01Z" fill="#57544F"/>
</g>
<defs>
<clipPath id="clip0_11_41">
<rect width="82" height="120" fill="white"/>
</clipPath>
</defs>
</svg>
