<svg width="74" height="55" viewBox="0 0 74 55" fill="none" xmlns="http://www.w3.org/2000/svg">
<g clip-path="url(#clip0_6_13)">
<path fill-rule="evenodd" clip-rule="evenodd" d="M28.06 8L30.97 8.78L36.34 6.49C37.58 5.94 38.95 5.74 40.29 5.91L51.15 7.13C51.15 6.86 51.19 6.58 51.27 6.31C51.48 5.65 51.94 5.1 52.56 4.79L58.25 1.88C59.53 1.25 61.08 1.74 61.74 3L73.7 26.07C74.01 26.68 74.07 27.39 73.87 28.04C73.66 28.7 73.2 29.25 72.58 29.56L66.89 32.48C66.28 32.8 65.56 32.86 64.9 32.64C64.31 32.46 63.8 32.06 63.48 31.54L57.81 33.13C58.07 33.72 58.21 34.36 58.21 35.01C58.23 37.59 56.16 39.7 53.57 39.75C53.63 40.07 53.67 40.39 53.67 40.72C53.67 41.97 53.17 43.16 52.29 44.05C51.42 44.91 50.24 45.41 49 45.42C49.04 45.7 49.06 45.99 49.05 46.28C49.05 47.53 48.56 48.73 47.67 49.61C46.78 50.49 45.58 50.99 44.32 50.98C43.8 50.98 43.27 50.9 42.78 50.74C42.69 51.83 42.22 52.84 41.45 53.62C39.6 55.46 36.59 55.46 34.74 53.62L31.92 50.83L29.78 52.95C28.08 54.62 25.36 54.65 23.63 53.02L23.56 52.96C22.73 52.13 22.27 51.02 22.28 49.86V49.61H22.03C20.86 49.61 19.74 49.15 18.91 48.33C18.08 47.51 17.62 46.4 17.63 45.24V44.99H17.38C16.21 44.99 15.09 44.53 14.27 43.71C13.45 42.89 12.99 41.78 12.99 40.62V40.37H12.74C10.96 40.37 9.36 39.31 8.68 37.68C8 36.05 8.37 34.17 9.63 32.92L11.88 30.68L8.7 27.52C7.66 28.26 6.23 28.15 5.32 27.25L0.759995 22.77C-0.260005 21.75 -0.260005 20.11 0.759995 19.1L19.22 0.77C19.71 0.28 20.38 0 21.07 0C21.76 0 22.44 0.28 22.92 0.77L27.45 5.26C27.93 5.74 28.21 6.4 28.21 7.08C28.21 7.39 28.15 7.69 28.05 7.98V8H28.06ZM27.8 10.24L26.5 9.89L10.29 25.98L13.48 29.12C14.25 28.57 15.18 28.29 16.12 28.3C17.29 28.29 18.42 28.74 19.25 29.55C20.08 30.37 20.55 31.48 20.55 32.64V32.89H20.8C21.93 32.89 23.02 33.32 23.84 34.1L23.9 34.16C24.72 34.99 25.18 36.12 25.15 37.28V37.53H25.4C26.57 37.53 27.68 37.99 28.51 38.8C29.34 39.62 29.79 40.73 29.79 41.89V42.14H30.04C31.17 42.14 32.27 42.57 33.08 43.35L33.15 43.41C33.98 44.23 34.44 45.35 34.43 46.51C34.43 47.49 34.08 48.44 33.45 49.21L36.29 52.03C36.76 52.5 37.39 52.77 38.06 52.77C38.73 52.77 39.36 52.5 39.83 52.03C40.3 51.56 40.56 50.93 40.55 50.27C40.55 49.61 40.29 48.98 39.82 48.51L36.06 44.77C35.62 44.34 35.62 43.63 36.06 43.19C36.5 42.75 37.21 42.75 37.65 43.19L42.51 48.03C42.98 48.49 43.62 48.75 44.29 48.75C45.65 48.75 46.76 47.65 46.76 46.3C46.78 45.63 46.53 44.98 46.05 44.5C45.99 44.44 45.94 44.38 45.9 44.31C45.78 44.21 45.66 44.11 45.55 44L39.4 37.89C38.96 37.46 38.96 36.75 39.4 36.31C39.84 35.87 40.55 35.87 40.99 36.31L47.14 42.42C47.61 42.89 48.24 43.14 48.91 43.14C49.58 43.14 50.22 42.88 50.69 42.41C51.16 41.94 51.42 41.3 51.42 40.65C51.42 40 51.17 39.38 50.71 38.92L44.55 32.81C44.11 32.37 44.11 31.67 44.55 31.23C44.99 30.8 45.7 30.8 46.14 31.23L51.7 36.75C52.68 37.71 54.26 37.71 55.24 36.75C55.71 36.28 55.97 35.65 55.97 34.99C55.97 34.35 55.72 33.72 55.27 33.26L44.03 22.12C43.02 21.06 41.62 20.47 40.16 20.49H35.23C34.85 20.47 34.5 20.66 34.31 20.99L32.09 24.5L32.03 24.58C30.88 26.27 27.92 27.85 25.39 28.15C24.55 28.27 23.69 28.2 22.87 27.95C22.01 27.68 21.31 27.05 20.94 26.23C20.38 24.99 20.52 23.14 21.76 20.51L25.32 13.21C25.68 12.46 26.15 11.77 26.71 11.16C27.04 10.8 27.41 10.49 27.82 10.22L27.8 10.24ZM45.6 20.54L56.35 31.21L62.42 29.52L52.01 9.47L40.02 8.12C39.54 8.06 39.06 8.06 38.59 8.12C38.11 8.19 37.66 8.32 37.22 8.52L29.65 11.79C29.15 12.01 28.7 12.32 28.33 12.72C27.93 13.16 27.61 13.66 27.36 14.2L23.8 21.5C22.84 23.47 22.67 24.68 22.98 25.35C23.11 25.6 23.33 25.78 23.6 25.86C24.1 26 24.62 26.03 25.13 25.95C27.07 25.72 29.34 24.58 30.17 23.37L32.42 19.84C32.72 19.37 33.13 18.98 33.62 18.71C34.12 18.44 34.69 18.3 35.26 18.31H40.19C41.2 18.31 42.21 18.49 43.15 18.87C44.08 19.27 44.91 19.84 45.62 20.55L45.6 20.53V20.54ZM53.7 7.9C57.59 15.38 61.47 22.86 65.35 30.34C65.39 30.43 65.48 30.5 65.58 30.53C65.67 30.57 65.78 30.57 65.87 30.53L71.48 27.66L71.59 27.6C71.66 27.55 71.72 27.48 71.75 27.4C71.78 27.32 71.78 27.23 71.75 27.14C71.72 27.11 71.71 27.07 71.69 27.03L59.76 4.04C59.72 3.95 59.64 3.89 59.55 3.86C59.45 3.82 59.35 3.82 59.25 3.86L53.63 6.76L53.53 6.82C53.46 6.87 53.4 6.94 53.37 7.02C53.34 7.1 53.34 7.19 53.37 7.26C53.39 7.3 53.41 7.34 53.42 7.37L53.69 7.88L53.7 7.9ZM25.05 48.39C24.69 48.79 24.49 49.31 24.49 49.84C24.49 50.41 24.71 50.95 25.12 51.36L25.17 51.41C26.03 52.19 27.35 52.17 28.18 51.36L31.57 47.99H31.62C32.42 47.14 32.4 45.82 31.57 45V44.95C31.17 44.58 30.63 44.38 30.08 44.38C29.51 44.38 28.96 44.6 28.56 45L25.1 48.43L25.06 48.39H25.05ZM26.93 43.38L26.99 43.32C27.76 42.47 27.73 41.17 26.93 40.35C26.52 39.95 25.97 39.73 25.4 39.74C24.83 39.74 24.28 39.97 23.87 40.37L20.41 43.82C19.83 44.45 19.67 45.36 20.02 46.14C20.37 46.92 21.15 47.42 22 47.42C22.57 47.42 23.12 47.19 23.52 46.79L26.91 43.42V43.39L26.93 43.38ZM22.29 38.78L22.36 38.71C22.71 38.32 22.91 37.82 22.92 37.29C22.92 36.72 22.7 36.18 22.29 35.77L22.24 35.73C21.41 34.97 20.13 34.97 19.29 35.73L15.84 39.16C15.38 39.55 15.1 40.11 15.09 40.72C15.07 41.32 15.31 41.9 15.74 42.32C16.17 42.74 16.76 42.96 17.37 42.93C17.97 42.9 18.54 42.61 18.92 42.15L22.31 38.79H22.29V38.78ZM14.26 37.54L17.65 34.18C18.27 33.57 18.45 32.65 18.12 31.84C17.79 31.04 17 30.52 16.13 30.51C15.56 30.51 15.01 30.73 14.6 31.13L11.21 34.5C10.37 35.34 10.37 36.69 11.21 37.53C11.61 37.93 12.16 38.16 12.74 38.16C13.32 38.16 13.86 37.93 14.27 37.53L14.26 37.54ZM20.83 2.34L2.35 20.66C2.21 20.81 2.21 21.05 2.35 21.2L6.88 25.69C6.95 25.76 7.04 25.8 7.14 25.8C7.24 25.8 7.34 25.76 7.41 25.69L25.87 7.37C25.94 7.3 25.98 7.2 25.98 7.11C25.98 7.01 25.94 6.91 25.87 6.84L21.38 2.34C21.31 2.27 21.22 2.23 21.12 2.23C21 2.23 20.89 2.26 20.81 2.34H20.84H20.83Z" fill="#57544F"/>
</g>
<defs>
<clipPath id="clip0_6_13">
<rect width="74" height="55" fill="white"/>
</clipPath>
</defs>
</svg>
