<svg width="110" height="100" viewBox="0 0 110 100" fill="none" xmlns="http://www.w3.org/2000/svg">
<g clip-path="url(#clip0_3_66)">
<path d="M52.21 62.5C58.76 58.02 63.09 50.36 63.09 41.67C63.09 27.88 52.21 16.67 38.83 16.67C25.45 16.67 14.57 27.88 14.57 41.67C14.57 50.36 18.9 58.02 25.45 62.5C10.62 68.14 0 82.8 0 100H6.47C6.47 81.62 20.98 66.67 38.82 66.67C56.66 66.67 71.17 81.62 71.17 100H77.64C77.64 82.8 67.02 68.14 52.2 62.5H52.21ZM38.82 60C29.01 60 21.03 51.78 21.03 41.67C21.03 31.56 29.01 23.34 38.82 23.34C48.63 23.34 56.61 31.56 56.61 41.67C56.61 51.78 48.63 60 38.82 60Z" fill="#F29100"/>
<path d="M84.56 45.83C91.11 41.35 95.44 33.69 95.44 25C95.44 11.21 84.56 0 71.18 0C64.7 0 58.82 2.65 54.46 6.93C52.85 8.52 51.45 10.33 50.31 12.32C52.33 13.16 54.25 14.2 56.03 15.44C57.17 13.52 58.65 11.84 60.37 10.47C63.37 8.09 67.11 6.67 71.18 6.67C80.99 6.67 88.97 14.89 88.97 25C88.97 33.39 83.46 40.47 75.98 42.64C74.45 43.08 72.84 43.34 71.17 43.34C70.6 43.34 70.03 43.31 69.47 43.25C69.35 45.65 68.99 47.98 68.38 50.21C69.3 50.13 70.22 50.01 71.16 50.01C72.47 50.01 73.76 50.11 75.04 50.27C91.06 52.25 103.52 66.31 103.52 83.34H109.99C109.99 66.14 99.37 51.48 84.55 45.84L84.56 45.83Z" fill="#57544F"/>
</g>
<defs>
<clipPath id="clip0_3_66">
<rect width="110" height="100" fill="white"/>
</clipPath>
</defs>
</svg>
