<svg width="85" height="110" viewBox="0 0 85 110" fill="none" xmlns="http://www.w3.org/2000/svg">
<g clip-path="url(#clip0_2_42)">
<path d="M42.5 7.77C41.89 7.77 41.4 7.27 41.4 6.65V1.12C41.4 0.5 41.89 0 42.5 0C43.11 0 43.6 0.5 43.6 1.12V6.65C43.6 7.27 43.11 7.77 42.5 7.77Z" fill="#F29100"/>
<path d="M67.92 18.45C67.64 18.45 67.36 18.34 67.14 18.12C66.71 17.68 66.71 16.97 67.14 16.54L70.99 12.63C71.42 12.19 72.12 12.19 72.55 12.63C72.98 13.07 72.98 13.78 72.55 14.21L68.7 18.12C68.48 18.34 68.2 18.45 67.92 18.45Z" fill="#F29100"/>
<path d="M13.23 73.96C12.95 73.96 12.67 73.85 12.45 73.63C12.02 73.19 12.02 72.48 12.45 72.05L16.3 68.14C16.73 67.7 17.43 67.7 17.86 68.14C18.29 68.58 18.29 69.29 17.86 69.72L14.01 73.63C13.79 73.85 13.51 73.96 13.23 73.96Z" fill="#F29100"/>
<path d="M83.9 44.25H78.45C77.84 44.25 77.35 43.75 77.35 43.13C77.35 42.51 77.84 42.01 78.45 42.01H83.9C84.51 42.01 85 42.51 85 43.13C85 43.75 84.51 44.25 83.9 44.25Z" fill="#F29100"/>
<path d="M6.55 44.25H1.1C0.49 44.25 0 43.75 0 43.13C0 42.51 0.49 42.01 1.1 42.01H6.55C7.16 42.01 7.65 42.51 7.65 43.13C7.65 43.75 7.16 44.25 6.55 44.25Z" fill="#F29100"/>
<path d="M71.77 73.96C71.49 73.96 71.21 73.85 70.99 73.63L67.14 69.72C66.71 69.28 66.71 68.57 67.14 68.14C67.57 67.7 68.27 67.7 68.7 68.14L72.55 72.05C72.98 72.49 72.98 73.2 72.55 73.63C72.33 73.85 72.05 73.96 71.77 73.96Z" fill="#F29100"/>
<path d="M17.08 18.45C16.8 18.45 16.52 18.34 16.3 18.12L12.45 14.21C12.02 13.77 12.02 13.06 12.45 12.63C12.88 12.19 13.58 12.19 14.01 12.63L17.86 16.54C18.29 16.98 18.29 17.69 17.86 18.12C17.64 18.34 17.36 18.45 17.08 18.45Z" fill="#F29100"/>
<path d="M56.38 10.6C56.24 10.6 56.09 10.57 55.95 10.51C55.39 10.27 55.12 9.61999 55.36 9.04999L57.46 3.94999C57.7 3.37999 58.34 3.10999 58.9 3.34999C59.46 3.58999 59.73 4.23999 59.49 4.80999L57.39 9.90999C57.21 10.34 56.8 10.6 56.37 10.6H56.38Z" fill="#F29100"/>
<path d="M75.77 30.42C75.34 30.42 74.92 30.16 74.75 29.72C74.52 29.15 74.79 28.49 75.35 28.26L80.39 26.16C80.95 25.93 81.6 26.2 81.83 26.77C82.06 27.34 81.79 28 81.23 28.23L76.19 30.33C76.05 30.39 75.91 30.41 75.77 30.41V30.42Z" fill="#F29100"/>
<path d="M4.19 60.18C3.76 60.18 3.34 59.92 3.17 59.48C2.94 58.91 3.21 58.25 3.77 58.02L8.81 55.92C9.37 55.69 10.02 55.96 10.25 56.53C10.48 57.1 10.21 57.76 9.65 57.99L4.61 60.09C4.47 60.15 4.33 60.17 4.19 60.17V60.18Z" fill="#F29100"/>
<path d="M80.68 60.47C80.54 60.47 80.39 60.44 80.25 60.38L75.23 58.25C74.67 58.01 74.4 57.36 74.64 56.79C74.88 56.22 75.52 55.95 76.08 56.19L81.1 58.32C81.66 58.56 81.93 59.21 81.69 59.78C81.51 60.21 81.1 60.47 80.67 60.47H80.68Z" fill="#F29100"/>
<path d="M9.34 30.16C9.2 30.16 9.05 30.13 8.91 30.07L3.89 27.94C3.33 27.7 3.06 27.05 3.3 26.48C3.54 25.91 4.18 25.64 4.74 25.88L9.76 28.01C10.32 28.25 10.59 28.9 10.35 29.47C10.17 29.9 9.76 30.16 9.33 30.16H9.34Z" fill="#F29100"/>
<path d="M28.87 10.49C28.44 10.49 28.02 10.23 27.85 9.78999L25.78 4.66999C25.55 4.09999 25.82 3.43999 26.38 3.20999C26.94 2.97999 27.59 3.24999 27.82 3.81999L29.89 8.93999C30.12 9.50999 29.85 10.17 29.29 10.4C29.15 10.46 29.01 10.48 28.87 10.48V10.49Z" fill="#F29100"/>
<path d="M52.16 96.39H33.53C32.48 96.39 31.63 95.53 31.63 94.46C31.63 93.39 32.48 92.53 33.53 92.53H52.16C53.21 92.53 54.06 93.39 54.06 94.46C54.06 95.53 53.21 96.39 52.16 96.39Z" fill="#F29100"/>
<path d="M52.16 102.46H33.53C32.48 102.46 31.63 101.6 31.63 100.53C31.63 99.46 32.48 98.6 33.53 98.6H52.16C53.21 98.6 54.06 99.46 54.06 100.53C54.06 101.6 53.21 102.46 52.16 102.46Z" fill="#F29100"/>
<path d="M38.33 104.74C37.87 104.74 37.52 105.17 37.6 105.63C38.06 108.12 40.21 110 42.79 110C45.37 110 47.52 108.12 47.98 105.63C48.06 105.17 47.71 104.74 47.25 104.74H38.32H38.33Z" fill="#F29100"/>
<path d="M50.19 90.09H35.23C32.64 90.09 30.46 88.03 30.26 85.41C29.63 76.85 26.18 71.43 22.54 65.69C18.57 59.43 14.46 52.95 14.46 42.48C14.46 28.34 24.43 16.44 38.16 14.19C41.37 13.66 44.75 13.7 47.94 14.31C61.28 16.84 70.96 28.69 70.96 42.48C70.96 52.95 66.85 59.43 62.88 65.69C59.24 71.43 55.79 76.86 55.16 85.42C54.97 88.04 52.78 90.1 50.19 90.1V90.09ZM42.71 17.55C41.38 17.55 40.05 17.66 38.75 17.87C26.81 19.83 18.14 30.18 18.14 42.48C18.14 51.85 21.78 57.59 25.64 63.67C29.37 69.55 33.23 75.63 33.93 85.14C33.98 85.83 34.55 86.37 35.23 86.37H50.19C50.88 86.37 51.44 85.84 51.49 85.14C52.19 75.64 56.05 69.56 59.79 63.67C63.65 57.59 67.29 51.86 67.29 42.48C67.29 30.48 58.87 20.18 47.27 17.98C45.78 17.7 44.25 17.56 42.71 17.56V17.55Z" fill="#57544F"/>
<path d="M29.02 60.44C28.45 60.44 27.89 60.17 27.53 59.67C17.32 45.44 24.85 32.09 25.17 31.53C25.68 30.64 26.81 30.35 27.69 30.87C28.56 31.39 28.86 32.53 28.35 33.42C28.07 33.91 21.76 45.28 30.51 57.48C31.11 58.31 30.93 59.48 30.11 60.09C29.78 60.33 29.4 60.45 29.03 60.45L29.02 60.44Z" fill="#57544F"/>
</g>
<defs>
<clipPath id="clip0_2_42">
<rect width="85" height="110" fill="white"/>
</clipPath>
</defs>
</svg>
