<svg width="60" height="52" viewBox="0 0 60 52" fill="none" xmlns="http://www.w3.org/2000/svg">
<g clip-path="url(#clip0_2_39)">
<path d="M25.94 52C26.75 52 27.57 51.69 28.19 51.07C29.43 49.83 29.43 47.81 28.19 46.56L10.85 29.19L56.82 29.19C58.58 29.19 60 27.76 60 26C60 24.24 58.58 22.81 56.82 22.81L10.85 22.81L28.18 5.44C29.42 4.2 29.42 2.18 28.18 0.93C26.94 -0.31 24.93 -0.31 23.69 0.93L0.93 23.75C0.62 24.06 0.39 24.41 0.24 24.79C0.09 25.16 0 25.57 0 25.99L0 26.01C0 26.44 0.09 26.84 0.24 27.21C0.4 27.59 0.62 27.94 0.93 28.25L23.69 51.07C24.31 51.69 25.12 52 25.94 52Z" fill="white"/>
</g>
<defs>
<clipPath id="clip0_2_39">
<rect width="60" height="52" fill="white"/>
</clipPath>
</defs>
</svg>
