<svg width="410" height="120" viewBox="0 0 410 120" fill="none" xmlns="http://www.w3.org/2000/svg">
<g clip-path="url(#clip0_10_2)">
<path d="M339.74 70.76L352.72 120L309.82 70.76H339.74Z" fill="#57544F"/>
<path d="M339.98 63.72H309.8L329.64 43.64C330.3 42.98 331.18 42.62 332.1 42.62H351.9L339.98 63.72Z" fill="#57544F"/>
<path d="M371.82 63.72H348L359.92 42.62L371.84 63.72H371.82Z" fill="#57544F"/>
<path d="M372.88 70.76L359.9 120L346.92 70.76H372.86H372.88Z" fill="#57544F"/>
<path d="M379.82 63.72L367.9 42.62H387.7C388.62 42.62 389.5 43 390.16 43.64L410 63.72H379.82Z" fill="#57544F"/>
<path d="M380.08 70.76H410L367.1 120L380.08 70.76Z" fill="#57544F"/>
<path d="M359.9 20.06C357.98 20.06 356.42 18.48 356.42 16.54V3.52C356.42 1.58 357.98 0 359.9 0C361.82 0 363.38 1.58 363.38 3.52V16.54C363.38 18.48 361.82 20.06 359.9 20.06Z" fill="#57544F"/>
<path d="M325.36 27.32L318.92 16.04C317.96 14.36 318.52 12.2 320.2 11.24C321.86 10.26 323.98 10.84 324.94 12.52L331.38 23.8C332.34 25.48 331.78 27.64 330.1 28.6C328.44 29.56 326.32 29 325.36 27.32Z" fill="#57544F"/>
<path d="M389.7 28.62C388.04 27.64 387.46 25.5 388.42 23.82L394.86 12.54C395.82 10.86 397.94 10.28 399.6 11.26C401.26 12.24 401.84 14.38 400.88 16.06L394.44 27.34C393.48 29.02 391.34 29.6 389.7 28.62Z" fill="#57544F"/>
<path d="M267.52 85.52L249.8 37.82C249.8 37.82 249.8 37.82 249.8 37.8C247.46 31.5 241.44 27.28 234.8 27.28C228.16 27.28 222.14 31.5 219.8 37.8C219.12 39.62 218.78 41.56 218.78 43.5V64.36H209.62V43.5C209.62 34.56 202.42 27.28 193.6 27.28C186.96 27.28 180.94 31.5 178.6 37.8C178.6 37.8 178.6 37.8 178.6 37.82L160.88 85.5C159.82 88.38 159.28 91.4 159.28 94.48C159.28 108.54 170.58 119.98 184.46 119.98C198.34 119.98 209.64 108.54 209.64 94.48V92.16H218.8V94.48C218.8 108.54 230.1 119.98 243.98 119.98C257.86 119.98 269.16 108.54 269.16 94.48C269.16 91.4 268.62 88.38 267.54 85.5L267.52 85.52ZM184.42 110.72C175.58 110.72 168.4 103.44 168.4 94.5C168.4 92.54 168.74 90.62 169.42 88.78C171.76 82.5 177.78 78.26 184.42 78.26C193.26 78.26 200.44 85.54 200.44 94.48C200.44 103.42 193.24 110.7 184.42 110.7V110.72ZM243.94 110.72C235.1 110.72 227.92 103.44 227.92 94.5C227.92 85.56 235.12 78.28 243.94 78.28C250.58 78.28 256.62 82.5 258.94 88.8C259.62 90.62 259.96 92.54 259.96 94.52C259.96 103.46 252.76 110.74 243.94 110.74V110.72Z" fill="#57544F"/>
<path d="M118.24 116.3L91.08 66.3C90.64 65.48 89.78 65.06 88.86 65C87.94 65.02 87.1 65.58 86.7 66.4L77.3 86.1L49.42 34.34V24.98H76.58C77.58 24.98 78.48 24.38 78.86 23.44C79.24 22.5 79.04 21.44 78.32 20.72L70.2 12.48L78.34 4.26C79.04 3.54 79.26 2.48 78.88 1.54C78.5 0.6 77.6 0 76.6 0H46.96C45.6 0 44.5 1.12 44.5 2.5V34.36L0.299993 116.3C-0.120007 117.08 -0.100007 118.02 0.339993 118.78C0.779993 119.54 1.59999 120 2.45999 120H116.06C116.94 120 117.74 119.54 118.18 118.78C118.62 118.02 118.64 117.08 118.22 116.3H118.24ZM46.92 40.22L59.56 63.68L54.6 68.7L48.9 61C47.96 59.74 45.88 59.74 44.94 61L39.24 68.7L34.28 63.68L46.92 40.22Z" fill="#57544F"/>
</g>
<defs>
<clipPath id="clip0_10_2">
<rect width="410" height="120" fill="white"/>
</clipPath>
</defs>
</svg>
