<svg width="52" height="70" viewBox="0 0 52 70" fill="none" xmlns="http://www.w3.org/2000/svg">
<g clip-path="url(#clip0_6_7)">
<path d="M46.38 26.16H42.99C42.53 26.16 42.22 25.85 42.22 25.38V16.74C42.22 7.55 34.9 0 25.96 0C17.02 0 9.71 7.48 9.71 16.74V25.38C9.71 25.85 9.4 26.16 8.94 26.16H5.63C2.55 26.16 0.0100021 28.73 0.0100021 31.92V64.23C0.0100021 67.42 2.55 69.99 5.63 69.99H46.38C49.46 69.99 52 67.42 52 64.23V31.93C52 28.74 49.46 26.17 46.38 26.17V26.16ZM29.05 51.39L29.44 53.73C29.67 54.9 28.75 56.07 27.59 56.07H24.43C23.27 56.07 22.35 54.98 22.58 53.73L23.04 51.31L23.73 47.57C22.73 46.87 22.04 46.56 22.04 44.3C22.04 42.04 23.81 40.25 26.05 40.25C28.29 40.25 30.06 42.04 30.06 44.3C30.06 46.56 29.37 46.87 28.37 47.57L29.06 51.38L29.05 51.39ZM37.14 25.39C37.14 25.86 36.83 26.17 36.37 26.17H15.56C15.1 26.17 14.79 25.86 14.79 25.39V16.75C14.79 10.44 19.8 5.3 25.96 5.3C32.12 5.3 37.13 10.44 37.13 16.75V25.39H37.14Z" fill="#57544F"/>
</g>
<defs>
<clipPath id="clip0_6_7">
<rect width="52" height="70" fill="white"/>
</clipPath>
</defs>
</svg>
