<svg width="50" height="70" viewBox="0 0 50 70" fill="none" xmlns="http://www.w3.org/2000/svg">
<g clip-path="url(#clip0_5_2)">
<path d="M42.91 27.45C42.91 27.45 42.89 27.41 42.87 27.39C42.84 27.37 42.81 27.36 42.79 27.33C41.41 25.93 39.86 24.66 38.14 23.59C37.63 23.27 36.97 23.43 36.65 23.94C36.33 24.45 36.49 25.12 37 25.43C38.28 26.23 39.43 27.16 40.51 28.16C39.31 29.27 38.03 30.28 36.62 31.11C36.3 30.22 35.98 29.33 35.59 28.52C35.33 27.98 34.68 27.75 34.15 28.01C33.61 28.27 33.38 28.92 33.64 29.45C34.03 30.28 34.36 31.18 34.69 32.09C33.38 32.71 32.03 33.24 30.61 33.61C30.03 33.76 29.68 34.35 29.83 34.93C29.95 35.42 30.39 35.75 30.88 35.75C30.97 35.75 31.06 35.74 31.15 35.72C32.61 35.35 34 34.81 35.35 34.19C36.18 37.17 36.67 40.44 36.76 43.84H26.1V40.74C26.1 40.14 25.62 39.66 25.02 39.66C24.42 39.66 23.94 40.14 23.94 40.74V43.84H13.28C13.37 40.44 13.85 37.17 14.69 34.19C16.04 34.81 17.43 35.35 18.89 35.72C18.98 35.74 19.07 35.75 19.16 35.75C19.64 35.75 20.08 35.42 20.21 34.93C20.36 34.35 20.01 33.76 19.43 33.61C18.01 33.25 16.66 32.71 15.35 32.09C15.67 31.18 16 30.27 16.4 29.45C16.66 28.91 16.43 28.26 15.89 28.01C15.35 27.75 14.71 27.98 14.45 28.52C14.06 29.33 13.75 30.23 13.42 31.11C12.02 30.28 10.73 29.28 9.53 28.16C10.61 27.16 11.76 26.23 13.04 25.43C13.55 25.11 13.7 24.45 13.39 23.94C13.08 23.43 12.41 23.27 11.9 23.59C10.18 24.66 8.63 25.93 7.25 27.33C7.22 27.35 7.19 27.36 7.16 27.39C7.14 27.41 7.13 27.43 7.12 27.46C2.58 32.07 0 38.27 0 44.91C0 51.55 2.71 57.85 7.09 62.38C7.11 62.4 7.11 62.42 7.13 62.44C7.13 62.44 7.15 62.45 7.16 62.46C11.7 67.11 18.02 70 25 70C31.98 70 38.3 67.1 42.84 62.46C42.84 62.46 42.86 62.45 42.87 62.44C42.89 62.42 42.89 62.4 42.91 62.38C47.29 57.86 50 51.7 50 44.91C50 38.12 47.42 32.07 42.91 27.45ZM7.98 29.69C9.42 31.04 10.99 32.24 12.7 33.21C11.75 36.48 11.2 40.09 11.11 43.83H2.23C2.48 38.51 4.52 33.57 7.98 29.7V29.69ZM2.21 45.99H11.08C11.17 49.84 11.71 53.44 12.62 56.63C10.95 57.59 9.39 58.76 7.95 60.12C4.58 56.32 2.46 51.41 2.21 46V45.99ZM9.46 61.66C10.65 60.54 11.94 59.57 13.31 58.74C14.51 62.05 16.13 64.78 18.05 66.73C14.81 65.69 11.9 63.93 9.47 61.66H9.46ZM23.92 67.72C20.38 67.06 17.23 63.2 15.28 57.68C17.97 56.41 20.89 55.67 23.92 55.53V67.71V67.72ZM23.92 53.37C20.66 53.51 17.52 54.27 14.62 55.6C13.81 52.69 13.32 49.43 13.23 45.99H23.91V53.37H23.92ZM42.02 29.69C45.48 33.56 47.52 38.5 47.77 43.82H38.89C38.8 40.09 38.25 36.48 37.3 33.21C39.01 32.24 40.58 31.04 42.02 29.69ZM26.08 45.99H36.76C36.67 49.42 36.19 52.69 35.38 55.6C32.48 54.27 29.34 53.51 26.08 53.37V45.99ZM26.08 67.72V55.54C29.12 55.68 32.04 56.41 34.72 57.69C32.77 63.21 29.62 67.06 26.08 67.73V67.72ZM31.96 66.74C33.88 64.79 35.5 62.06 36.7 58.75C38.07 59.57 39.35 60.55 40.55 61.67C38.12 63.94 35.21 65.7 31.97 66.74H31.96ZM42.05 60.12C40.61 58.77 39.05 57.6 37.38 56.63C38.3 53.45 38.83 49.85 38.92 45.99H47.79C47.54 51.4 45.42 56.31 42.05 60.11V60.12Z" fill="#57544F"/>
<path d="M25 19.99C28.47 19.99 31.29 17.16 31.29 13.68C31.29 10.2 28.47 7.37 25 7.37C21.53 7.37 18.71 10.2 18.71 13.68C18.71 17.16 21.53 19.99 25 19.99ZM25 9.54C27.28 9.54 29.13 11.4 29.13 13.68C29.13 15.96 27.28 17.82 25 17.82C22.72 17.82 20.87 15.96 20.87 13.68C20.87 11.4 22.72 9.54 25 9.54Z" fill="#57544F"/>
<path d="M24.09 37.98C24.29 38.29 24.63 38.48 25 38.48C25.37 38.48 25.71 38.29 25.91 37.98L36.89 20.79C38.2 18.74 38.89 16.37 38.9 13.93C38.9 6.25 32.66 0 25 0C17.34 0 11.1 6.25 11.1 13.93C11.1 16.37 11.8 18.74 13.11 20.79L24.09 37.98ZM25 2.17C31.47 2.17 36.74 7.45 36.74 13.93C36.74 15.95 36.16 17.92 35.07 19.62L25 35.39L14.93 19.62C13.84 17.92 13.26 15.95 13.26 13.93C13.26 7.45 18.53 2.17 25 2.17Z" fill="#57544F"/>
</g>
<defs>
<clipPath id="clip0_5_2">
<rect width="50" height="70" fill="white"/>
</clipPath>
</defs>
</svg>
