<svg width="160" height="72" viewBox="0 0 160 72" fill="none" xmlns="http://www.w3.org/2000/svg">
<g clip-path="url(#clip0_1_2)">
<path fill-rule="evenodd" clip-rule="evenodd" d="M12.9 61.3374C12.33 61.6372 11.87 62.1368 11.5 62.8464C11.17 63.4859 11.01 64.3353 11.01 65.3746C11.01 66.1541 11.11 66.8136 11.31 67.3432C11.68 68.3325 12.28 68.9721 13.08 69.2719C13.53 69.4318 14.12 69.5217 14.84 69.5217H17.67V68.4225H15.09C14.51 68.4225 14.06 68.3425 13.74 68.1926C13.42 68.0427 13.15 67.7829 12.93 67.4132C12.64 66.9035 12.51 66.3439 12.52 65.7244H17.67V64.6251H12.52C12.55 64.0655 12.64 63.6158 12.78 63.2761C12.92 62.9363 13.12 62.6565 13.4 62.4266C13.6 62.2668 13.83 62.1568 14.08 62.0969C14.34 62.0369 14.69 61.9969 15.16 61.9969H17.67V60.8977H15.24C14.23 60.8977 13.45 61.0476 12.89 61.3374H12.9ZM27.82 61.0976C27.39 60.9677 26.72 60.8977 25.81 60.8977H22.5V69.5117H25.94C26.66 69.5117 27.2 69.4817 27.56 69.4118C27.91 69.3418 28.25 69.2119 28.57 69.0021C29.61 68.3425 30.14 67.0534 30.14 65.1248C30.14 64.1654 29.99 63.376 29.68 62.7664C29.24 61.897 28.62 61.3474 27.83 61.0976H27.82ZM28.13 67.5631C27.74 68.1327 27.05 68.4125 26.08 68.4125H23.88V61.9969H25.98C26.52 61.9969 26.95 62.0569 27.27 62.1768C27.59 62.2967 27.85 62.4966 28.04 62.7764C28.45 63.346 28.66 64.1954 28.66 65.3146C28.66 66.294 28.48 67.0534 28.12 67.5631H28.13ZM34.8 69.5117H36.17V60.8977H34.8V69.5117ZM40.44 61.9969H43.42V69.5117H44.8V61.9969H47.79V60.8977H40.45V61.9969H40.44ZM55.58 60.7678C54.83 60.7678 54.18 60.8877 53.65 61.0976C53.12 61.3074 52.66 61.6272 52.3 62.0569C52.01 62.3967 51.77 62.8464 51.6 63.416C51.43 63.9856 51.34 64.5851 51.34 65.2147C51.34 65.8443 51.42 66.4439 51.58 67.0135C51.74 67.5931 51.96 68.0427 52.23 68.3725C52.9 69.2119 53.98 69.6216 55.45 69.6216C56.74 69.6216 57.76 69.2819 58.51 68.6124C59.3 67.9028 59.69 66.7736 59.69 65.2147C59.69 63.9456 59.45 62.9463 58.98 62.2268C58.33 61.2475 57.2 60.7578 55.57 60.7578L55.58 60.7678ZM57.91 67.2833C57.52 68.1227 56.73 68.5424 55.54 68.5424C54.49 68.5424 53.76 68.2326 53.34 67.6031C52.98 67.0634 52.8 66.264 52.8 65.1947C52.8 64.3053 52.92 63.6158 53.17 63.1162C53.57 62.2867 54.37 61.877 55.56 61.877C56.6 61.877 57.33 62.2268 57.76 62.8963C58.07 63.396 58.23 64.1854 58.23 65.2647C58.23 66.1541 58.12 66.8236 57.91 67.2833ZM71.41 68.2026C71.35 67.3932 71.22 66.8136 71.01 66.4638C70.8 66.1141 70.4 65.8043 69.82 65.5545C70.27 65.4246 70.62 65.2547 70.89 65.0348C71.37 64.6251 71.61 64.0455 71.61 63.296C71.61 62.8963 71.53 62.5266 71.36 62.1868C71.19 61.847 70.96 61.5772 70.66 61.3774C70.21 61.0676 69.42 60.9177 68.29 60.9177H64.36V69.5317H65.74V65.8842H67.12C68.15 65.8842 68.87 66.0541 69.29 66.4039C69.71 66.7536 69.96 67.3832 70.05 68.2926C70.1 68.8522 70.13 69.172 70.15 69.2619C70.16 69.3518 70.19 69.4418 70.24 69.5317H71.65C71.57 69.3918 71.52 69.2719 71.5 69.162C71.48 69.052 71.45 68.7423 71.42 68.2126L71.41 68.2026ZM68.2 64.755H65.74V61.9969H68.2C68.93 61.9969 69.39 62.0669 69.6 62.1868C69.97 62.4067 70.15 62.8064 70.15 63.376C70.15 63.8756 69.98 64.2454 69.65 64.5052C69.41 64.6751 68.93 64.765 68.2 64.765V64.755ZM79.05 60.8977L75.48 69.5117H76.94L77.86 67.2633H81.94L82.82 69.5117H84.28L80.85 60.8977H79.04H79.05ZM78.28 66.164L79.93 61.927L81.5 66.164H78.27H78.28ZM89.56 61.2774C89.03 61.5273 88.6 61.977 88.25 62.6065C87.83 63.376 87.62 64.2554 87.62 65.2647C87.62 65.9742 87.73 66.6337 87.96 67.2333C88.3 68.1527 88.83 68.7822 89.56 69.132C89.84 69.2619 90.12 69.3618 90.42 69.4118C90.71 69.4618 91.13 69.5017 91.67 69.5117V70.6809H91.98C92.39 70.6809 92.59 70.8008 92.59 71.0307C92.59 71.2805 92.39 71.4004 91.98 71.4004H91.33V72H92.02C92.49 72 92.84 71.9201 93.05 71.7602C93.27 71.6003 93.37 71.3405 93.37 70.9907C93.37 70.591 93.23 70.3212 92.94 70.1813C92.88 70.1513 92.79 70.1213 92.67 70.1013C92.55 70.0813 92.46 70.0713 92.41 70.0813H92.3V69.5217H94.57V68.4225H92.01C91.41 68.4225 90.95 68.3725 90.65 68.2826C90.34 68.1926 90.07 68.0128 89.84 67.753C89.34 67.1933 89.09 66.3839 89.09 65.3146C89.09 64.755 89.15 64.2354 89.28 63.7557C89.41 63.286 89.59 62.9163 89.81 62.6465C90.01 62.4067 90.26 62.2368 90.56 62.1468C90.86 62.0569 91.3 62.0069 91.89 62.0069H94.57V60.9077H91.82C90.84 60.9077 90.08 61.0376 89.56 61.2874V61.2774ZM101.93 60.8977L98.36 69.5117H99.82L100.74 67.2633H104.82L105.7 69.5117H107.17L103.74 60.8977H101.93ZM101.16 66.164L102.81 61.927L104.38 66.164H101.15H101.16ZM102 59.5886C102.17 59.5886 102.4 59.6586 102.68 59.7885C103.16 60.0083 103.53 60.1282 103.78 60.1282C104.1 60.1282 104.36 60.0083 104.55 59.7785C104.75 59.5486 104.87 59.2089 104.94 58.7492H104.21C104.14 59.089 103.97 59.2588 103.69 59.2588C103.58 59.2588 103.49 59.2489 103.4 59.2189C103.32 59.1889 103.15 59.1189 102.89 58.999C102.49 58.8192 102.16 58.7192 101.92 58.7192C101.24 58.7192 100.83 59.1789 100.71 60.0983H101.44C101.51 59.7585 101.69 59.5886 101.99 59.5886H102ZM118.18 62.2468C117.53 61.2675 116.4 60.7778 114.77 60.7778C114.02 60.7778 113.37 60.8977 112.84 61.1076C112.3 61.3174 111.85 61.6372 111.49 62.0669C111.2 62.4067 110.96 62.8563 110.79 63.426C110.62 63.9956 110.53 64.5951 110.53 65.2247C110.53 65.8543 110.61 66.4538 110.77 67.0235C110.93 67.6031 111.15 68.0527 111.42 68.3825C112.09 69.2219 113.17 69.6316 114.64 69.6316C115.93 69.6316 116.95 69.2919 117.7 68.6223C118.49 67.9128 118.88 66.7836 118.88 65.2247C118.88 63.9556 118.64 62.9563 118.17 62.2368L118.18 62.2468ZM117.11 67.2833C116.72 68.1227 115.93 68.5424 114.74 68.5424C113.69 68.5424 112.96 68.2326 112.54 67.6031C112.18 67.0634 112.01 66.264 112.01 65.1947C112.01 64.3053 112.13 63.6158 112.37 63.1162C112.78 62.2867 113.57 61.877 114.77 61.877C115.81 61.877 116.54 62.2268 116.97 62.8963C117.28 63.396 117.44 64.1854 117.44 65.2647C117.44 66.1541 117.34 66.8236 117.13 67.2833H117.11Z" fill="#F29100"/>
<path d="M0 0H11.25V29.6894C11.41 33.4568 11.57 35.965 11.75 37.2142C12.27 40.4719 14.39 42.4205 18.11 43.0701C19.82 43.3499 22.29 43.4998 25.52 43.4998H36.34V52.9133H24.36C18.7 52.9332 14.59 52.6135 12.03 51.9439C6.19 50.2351 2.49 46.5277 0.94 40.8216C0.34 38.6232 0.04 34.9158 0.01 29.6994V0H0Z" fill="white"/>
<path fill-rule="evenodd" clip-rule="evenodd" d="M131.04 42.0908C127.36 38.3833 124.96 35.5353 123.82 33.5667C120.88 28.4303 120.87 23.1939 123.79 17.8676C125.12 15.5792 127.8 12.4514 131.82 8.46412L140.29 0L146.95 6.65538L139.3 14.3001C137.02 16.5885 135.37 18.4272 134.37 19.8362C132.2 22.9241 132.08 25.8021 134.01 28.4702C134.76 29.4795 136.41 31.3682 138.97 34.1463L159.98 55.1417L152.03 63.0862L131.03 42.0908H131.04Z" fill="#F29100"/>
<path d="M55.2 14.2601H44.57V52.9033H55.2V14.2601Z" fill="white"/>
<path d="M63.43 14.2601H83.95C87.13 14.2601 89.66 14.5599 91.55 15.1495C96.82 17.0382 99.45 21.6849 99.42 29.0998V52.8933H88.79V27.8906C88.79 25.7221 88.13 24.1532 86.81 23.2039C86.19 22.7642 85.03 22.5344 83.32 22.5044H74.05V52.8933H63.42V14.2601H63.43Z" fill="white"/>
<path d="M107.65 52.9033V0H118.9V52.9033H107.65Z" fill="white"/>
<path fill-rule="evenodd" clip-rule="evenodd" d="M55.2 5.33629C55.2 8.28425 52.81 10.6726 49.86 10.6726C46.91 10.6726 44.52 8.28425 44.52 5.33629C44.52 2.38834 46.91 0 49.86 0C52.81 0 55.2 2.38834 55.2 5.33629Z" fill="#F29100"/>
</g>
<defs>
<clipPath id="clip0_1_2">
<rect width="160" height="72" fill="white"/>
</clipPath>
</defs>
</svg>
