<svg width="250" height="46" viewBox="0 0 250 46" fill="none" xmlns="http://www.w3.org/2000/svg">
<g clip-path="url(#clip0_1_12)">
<path fill-rule="evenodd" clip-rule="evenodd" d="M209.14 43.5769H217.09V38.1668H216.97C216.72 38.3152 216.36 38.4438 215.88 38.5526C215.42 38.6515 214.88 38.7405 214.26 38.8097C213.64 38.8592 212.95 38.8987 212.2 38.9383C211.82 38.9383 211.43 38.9581 211.03 38.9581C210.43 40.4218 209.8 41.9549 209.14 43.5868V43.5769ZM210.96 10.1772C210.45 9.66287 209.89 9.2178 209.27 8.83208C208.44 8.28811 207.56 7.85294 206.62 7.50677C205.68 7.1705 204.74 6.92324 203.78 6.77489C202.82 6.62653 201.92 6.54741 201.07 6.54741C199.8 6.54741 198.64 6.59686 197.58 6.69576C196.54 6.78478 195.52 6.91335 194.53 7.10127C193.55 7.28918 192.58 7.53644 191.6 7.83315C190.64 8.11997 189.61 8.46614 188.51 8.87164L186.39 14.0245L186.83 14.1729C187.04 13.8663 187.43 13.4311 188.01 12.8476C188.61 12.2739 189.38 11.7003 190.32 11.1167C191.28 10.5431 192.39 10.0387 193.66 9.61342C194.95 9.16835 196.38 8.95076 197.96 8.95076C199.23 8.95076 200.4 9.13868 201.48 9.50462C202.58 9.88046 203.54 10.4541 204.35 11.2354C205.16 11.997 205.79 12.9662 206.25 14.1531C206.73 15.3201 206.97 16.7048 206.97 18.3169C206.97 18.5543 206.97 18.8015 206.95 19.0389C208.32 16.0125 209.66 13.0553 210.97 10.1376L210.96 10.1772ZM200.8 32.5195C200.31 33.1129 199.8 33.6964 199.28 34.2602C198.28 35.3481 197.29 36.347 196.29 37.2866C195.29 38.2163 193.17 39.6801 191.66 40.5504C189.85 41.5889 188.87 42.0636 187.83 42.4593C187.04 42.756 186.54 42.8549 185.9 42.9834C185.76 43.0131 185.61 43.0428 185.45 43.0725V43.5769H195.69C197.43 39.8185 199.13 36.1294 200.8 32.5195Z" fill="white"/>
<path fill-rule="evenodd" clip-rule="evenodd" d="M212.07 35.4866C212.94 36.9009 213.96 38.1965 215.15 39.3636C216.39 40.5999 217.77 41.6581 219.27 42.5384C220.79 43.4087 222.42 44.0813 224.16 44.5461C225.9 45.0308 227.7 45.278 229.57 45.278C231.44 45.278 233.24 45.0308 234.98 44.5461C236.72 44.0714 238.35 43.4087 239.87 42.5384C241.39 41.6482 242.77 40.59 244.02 39.3636C245.26 38.1273 246.33 36.7624 247.21 35.2591C248.11 33.7558 248.79 32.1535 249.27 30.4524C249.76 28.7315 250.01 26.9413 250.01 25.072C250.01 23.2028 249.76 21.4423 249.27 19.7214C248.79 18.0004 248.11 16.3982 247.21 14.9146C246.33 13.4113 245.27 12.0464 244.02 10.8102C242.77 9.57386 241.39 8.52548 239.87 7.65513C238.35 6.765 236.72 6.09246 234.98 5.61772C233.24 5.13309 231.44 4.88583 229.57 4.88583C228.07 4.88583 226.61 5.04408 225.19 5.36057C224.41 7.13094 223.68 8.79252 222.98 10.3552C223.07 10.3156 223.16 10.2761 223.25 10.2365C225.21 9.36616 227.31 8.93098 229.57 8.93098C231.83 8.93098 233.93 9.36616 235.89 10.2365C237.85 11.0871 239.55 12.2541 241 13.7377C242.46 15.2015 243.62 16.9224 244.46 18.9005C245.3 20.8587 245.72 22.9456 245.72 25.1709C245.72 26.6545 245.53 28.0886 245.14 29.4633C244.76 30.8381 244.22 32.1337 243.52 33.3503C242.82 34.547 241.99 35.6448 241.02 36.6338C240.05 37.6328 238.96 38.4833 237.75 39.1856C236.56 39.8878 235.27 40.4416 233.88 40.8471C232.51 41.223 231.07 41.4208 229.57 41.4208C228.07 41.4208 226.63 41.2329 225.26 40.8471C223.89 40.4515 222.6 39.8977 221.39 39.1856C220.2 38.4833 219.11 37.6328 218.12 36.6338C217.15 35.6349 216.32 34.5371 215.62 33.3503C215.07 32.3711 214.62 31.3425 214.27 30.2645C213.57 31.9161 212.84 33.6371 212.08 35.4767L212.07 35.4866Z" fill="white"/>
<path d="M220.34 21.5016C220.34 21.0664 220.43 20.6807 220.61 20.3642C220.8 20.0378 221.04 19.7708 221.35 19.5433C221.66 19.3158 222 19.1279 222.39 18.9895C222.78 18.8411 223.18 18.7323 223.6 18.6532C224.02 18.5741 224.43 18.5147 224.84 18.4851C225.25 18.4554 225.62 18.4356 225.96 18.4257V18.0004C225.96 17.6345 225.91 17.318 225.82 17.051C225.72 16.7839 225.59 16.5663 225.41 16.3883C225.23 16.2103 225.02 16.0817 224.77 15.9927C224.53 15.9037 224.26 15.8641 223.96 15.8641C223.76 15.8641 223.55 15.8839 223.36 15.9136C223.16 15.9432 222.96 16.0026 222.74 16.0817C222.53 16.1608 222.31 16.2696 222.07 16.3982C221.84 16.5268 221.59 16.7048 221.31 16.9026L221.23 16.8532L221.81 15.6762C222 15.5971 222.18 15.5278 222.36 15.4784C222.54 15.4191 222.72 15.3795 222.91 15.3498C223.1 15.3201 223.29 15.2905 223.48 15.2806C223.68 15.2608 223.89 15.2509 224.1 15.2509C224.69 15.2509 225.2 15.3201 225.62 15.4685C226.04 15.607 226.39 15.8048 226.65 16.052C226.92 16.2993 227.12 16.5861 227.24 16.9224C227.36 17.2488 227.43 17.6048 227.43 17.9807V20.7005C227.43 21.1752 227.43 21.5906 227.45 21.9368C227.47 22.283 227.48 22.5896 227.5 22.8467C227.52 23.1039 227.55 23.3115 227.58 23.4896C227.61 23.6577 227.65 23.8061 227.68 23.9247V23.9544H225.8V23.9247C225.83 23.8357 225.85 23.7368 225.86 23.628C225.88 23.5192 225.89 23.3808 225.9 23.2324C225.78 23.3313 225.64 23.4302 225.48 23.539C225.32 23.6478 225.14 23.7368 224.93 23.8258C224.73 23.905 224.5 23.9742 224.24 24.0237C223.99 24.083 223.72 24.1028 223.42 24.1028C222.44 24.1028 221.68 23.8753 221.14 23.4302C220.6 22.9753 220.33 22.3324 220.33 21.5016H220.34ZM225.96 19.0785C225.45 19.0785 224.95 19.118 224.48 19.1675C224 19.2169 223.58 19.3257 223.22 19.4939C222.86 19.662 222.57 19.8994 222.35 20.206C222.13 20.5126 222.03 20.9181 222.03 21.4324C222.03 22.0851 222.2 22.5896 222.53 22.9357C222.86 23.2819 223.32 23.45 223.91 23.45C224.18 23.45 224.43 23.4105 224.65 23.3412C224.88 23.2621 225.07 23.1731 225.24 23.0544C225.42 22.9357 225.56 22.817 225.68 22.6786C225.8 22.5401 225.89 22.4016 225.95 22.283C225.96 22.0753 225.97 21.8379 225.97 21.5807V19.0686L225.96 19.0785Z" fill="white"/>
<path d="M235.84 18.3466C235.84 17.6147 235.69 17.0707 235.39 16.7345C235.09 16.3883 234.69 16.2202 234.18 16.2202C234 16.2202 233.8 16.2597 233.57 16.3389C233.34 16.4081 233.11 16.507 232.87 16.6356C232.63 16.7542 232.39 16.9026 232.16 17.0707C231.92 17.2389 231.7 17.4169 231.49 17.6048L231.47 18.6928V20.7104C231.47 21.1851 231.47 21.6005 231.49 21.9467C231.5 22.2928 231.52 22.5994 231.54 22.8566C231.56 23.1137 231.59 23.3214 231.62 23.4995C231.65 23.6676 231.68 23.816 231.71 23.9346V23.9643H229.75V23.9346C229.78 23.816 229.81 23.6775 229.84 23.4995C229.87 23.3313 229.9 23.1137 229.92 22.8566C229.94 22.5994 229.96 22.3027 229.97 21.9467C229.99 21.5906 230 21.1752 230 20.7104V18.6928C230 18.218 230 17.8125 229.97 17.4565C229.96 17.1004 229.94 16.7938 229.92 16.5367C229.9 16.2795 229.88 16.0718 229.84 15.8938C229.81 15.7256 229.78 15.5773 229.75 15.4586V15.4289H231.71V15.4586C231.67 15.5971 231.63 15.7751 231.6 15.9927C231.58 16.2004 231.55 16.4773 231.52 16.8235C231.75 16.6356 232 16.4476 232.27 16.2597C232.54 16.0718 232.82 15.9037 233.11 15.7553C233.4 15.607 233.69 15.4883 233.99 15.3993C234.29 15.3004 234.58 15.2608 234.87 15.2608C235.31 15.2608 235.68 15.3399 235.99 15.4883C236.3 15.6366 236.55 15.8344 236.75 16.0817C236.95 16.329 237.09 16.6059 237.17 16.9224C237.26 17.229 237.31 17.5455 237.31 17.8719V20.7005C237.31 21.1752 237.31 21.5906 237.33 21.9368C237.34 22.2829 237.36 22.5896 237.38 22.8467C237.4 23.1038 237.43 23.3115 237.46 23.4896C237.49 23.6577 237.52 23.8061 237.55 23.9247V23.9544H235.59V23.9247C235.62 23.8061 235.65 23.6676 235.68 23.4896C235.71 23.3214 235.74 23.1038 235.76 22.8467C235.78 22.5896 235.8 22.2928 235.81 21.9368C235.83 21.5807 235.84 21.1653 235.84 20.7005V18.3466Z" fill="white"/>
<path d="M220.34 29.5524C220.34 28.8304 220.48 28.1578 220.75 27.5446C221.03 26.9215 221.4 26.3874 221.88 25.9325C222.37 25.4775 222.94 25.1215 223.59 24.8643C224.24 24.6072 224.95 24.4786 225.71 24.4786C226.47 24.4786 227.15 24.5973 227.8 24.8446C228.46 25.0819 229.03 25.4182 229.52 25.8633C230.01 26.3083 230.39 26.8424 230.66 27.4754C230.94 28.1084 231.08 28.8205 231.08 29.6117C231.08 30.2744 230.96 30.9073 230.73 31.5205C230.49 32.1337 230.15 32.6678 229.69 33.1327C229.23 33.5975 228.66 33.9733 227.99 34.2602C227.33 34.5371 226.56 34.6756 225.69 34.6756C224.95 34.6756 224.26 34.5569 223.61 34.3195C222.96 34.0821 222.39 33.7459 221.9 33.3008C221.41 32.8557 221.03 32.3217 220.75 31.6986C220.47 31.0656 220.33 30.3535 220.33 29.5622L220.34 29.5524ZM225.92 33.9733C226.39 33.9733 226.81 33.8843 227.2 33.7063C227.59 33.5283 227.93 33.2711 228.22 32.925C228.5 32.5887 228.72 32.1733 228.88 31.6887C229.04 31.204 229.12 30.6502 229.12 30.037C229.12 29.3447 229.04 28.7018 228.89 28.1084C228.74 27.5149 228.51 27.0006 228.21 26.5655C227.91 26.1303 227.54 25.794 227.09 25.5468C226.64 25.2995 226.11 25.1808 225.5 25.1808C225.03 25.1808 224.61 25.2698 224.22 25.4479C223.83 25.6259 223.49 25.8731 223.2 26.2094C222.92 26.5457 222.7 26.9512 222.54 27.4457C222.38 27.9303 222.3 28.4743 222.3 29.0875C222.3 29.7798 222.38 30.4227 222.53 31.026C222.69 31.6194 222.92 32.1436 223.22 32.5887C223.52 33.0239 223.9 33.37 224.34 33.6173C224.79 33.8645 225.32 33.9832 225.92 33.9832V33.9733Z" fill="white"/>
<path d="M237.76 26.5852L237.62 26.605C237.57 26.4567 237.5 26.2984 237.39 26.1303C237.29 25.9622 237.16 25.8138 237 25.6654C236.84 25.527 236.65 25.4083 236.42 25.3193C236.2 25.2204 235.94 25.1709 235.64 25.1709C235.44 25.1709 235.24 25.2006 235.06 25.2599C234.88 25.3193 234.72 25.4083 234.59 25.5171C234.46 25.6259 234.35 25.7643 234.28 25.9325C234.2 26.1006 234.16 26.2984 234.16 26.516C234.16 26.8325 234.26 27.1292 234.46 27.416C234.66 27.7029 234.92 27.9798 235.22 28.2666C235.52 28.5435 235.85 28.8205 236.2 29.1073C236.56 29.3941 236.88 29.6809 237.19 29.9974C237.49 30.304 237.74 30.6403 237.94 30.9865C238.14 31.3326 238.25 31.7084 238.25 32.114C238.25 32.4403 238.19 32.7667 238.07 33.0733C237.95 33.3799 237.77 33.6568 237.52 33.9041C237.28 34.1514 236.96 34.3492 236.57 34.4975C236.19 34.6459 235.73 34.7151 235.2 34.7151C234.88 34.7151 234.59 34.6854 234.31 34.6261C234.04 34.5668 233.79 34.4975 233.56 34.4184C233.34 34.3294 233.13 34.2305 232.95 34.1316C232.77 34.0228 232.61 33.9239 232.48 33.825L232.58 31.9953H232.74C232.81 32.292 232.9 32.5689 233.04 32.8261C233.17 33.0733 233.33 33.2909 233.52 33.4689C233.72 33.647 233.94 33.7755 234.19 33.8843C234.44 33.9832 234.71 34.0327 235.01 34.0327C235.5 34.0327 235.88 33.9041 236.16 33.6371C236.45 33.37 236.59 33.0338 236.59 32.6085C236.59 32.2722 236.49 31.9557 236.29 31.6788C236.1 31.392 235.86 31.115 235.56 30.848C235.26 30.5809 234.95 30.3238 234.6 30.0568C234.26 29.7897 233.95 29.5128 233.65 29.2161C233.35 28.9194 233.11 28.5831 232.91 28.2369C232.72 27.8809 232.62 27.4655 232.62 27.0105C232.62 26.6347 232.69 26.2984 232.83 25.9918C232.97 25.6753 233.17 25.4083 233.42 25.1907C233.68 24.9632 233.98 24.7951 234.33 24.6665C234.68 24.5478 235.06 24.4885 235.47 24.4885C236.02 24.4885 236.47 24.5478 236.83 24.6665C237.2 24.7753 237.48 24.8841 237.67 24.983L237.77 26.5754L237.76 26.5852Z" fill="white"/>
<path d="M202 46C209.81 29.1765 216.76 13.8465 222.86 0L224.43 3.85724L224.39 4.00559C216.92 21.017 213.92 27.3468 206.4 46C205.52 45.7429 205.34 45.6341 204.51 45.6341C203.95 45.6341 203.11 45.7527 201.99 46H202Z" fill="white"/>
<path d="M196.34 46C204.15 29.1765 211.1 13.8465 217.2 0L218.77 3.85724L218.73 4.00559C211.26 21.017 208.26 27.3468 200.74 46C199.86 45.7429 199.68 45.6341 198.85 45.6341C198.29 45.6341 197.45 45.7527 196.33 46H196.34Z" fill="white"/>
<path d="M130.4 28.3062C130.75 28.3358 131.21 28.3457 131.81 28.3457C138.19 28.3457 141.38 26.2786 141.38 22.1346C141.38 18.3367 138.92 16.4378 134 16.4378C133.14 16.4378 132.03 16.4773 130.65 16.5663C130.48 17.8026 130.39 19.2466 130.39 20.8686V28.3062H130.4ZM126.61 43.7252C126.81 40.4614 126.91 35.6547 126.91 29.3249C126.91 22.9951 126.81 18.396 126.61 14.8751H135.46C141.9 14.8751 145.12 17.1499 145.12 21.6994C145.12 23.6676 144.38 25.3292 142.91 26.694C141.44 28.0589 139.31 28.9886 136.54 29.493C138.57 32.1337 141.54 36.8811 147.19 43.7351C146.24 43.5868 145.38 43.5274 144.61 43.5274C143.84 43.5274 143.04 43.5966 142.13 43.7351C139.87 40.501 137.91 38.1668 136.76 36.3866L132.94 30.4722C132.51 29.8095 131.88 29.5425 131.22 29.5425C131.08 29.5425 130.81 29.5721 130.41 29.6315V37.3558C130.41 38.9877 130.48 41.1241 130.62 43.7351C129.9 43.5868 129.24 43.5274 128.64 43.5274C128.07 43.5274 127.39 43.5966 126.62 43.7351L126.61 43.7252Z" fill="white"/>
<path d="M107.94 27.5446C108.8 27.6336 109.6 27.6732 110.35 27.6732C115.64 27.6732 118.29 25.6358 118.29 21.5412C118.29 17.9905 115.93 16.2202 111.21 16.2202C110.38 16.2202 109.36 16.2894 108.16 16.4279C108.02 17.9806 107.95 19.7906 107.95 21.8774V27.5347L107.94 27.5446ZM104.07 43.8142C104.36 41.1142 104.5 37.2273 104.5 32.1535C104.5 24.2116 104.41 18.4455 104.24 14.8751H111.5C115.17 14.8751 117.86 15.3795 119.6 16.3982C121.33 17.407 122.19 19.0488 122.19 21.3335C122.19 25.0127 119.79 27.327 114.98 28.2567C120.34 28.7908 123.01 31.115 123.01 35.2096C123.01 40.946 119.15 43.8142 111.41 43.8142C110.69 43.8142 109.78 43.7846 108.66 43.7252C107.55 43.6659 106.77 43.6362 106.34 43.6362C105.85 43.6362 105.09 43.6955 104.06 43.8142H104.07ZM107.81 29.315V33.4986C107.81 37.2767 107.89 40.0757 108.07 41.9054C109.15 42.1625 110.13 42.2911 110.99 42.2911C113.51 42.2911 115.5 41.6977 116.94 40.5207C118.38 39.3438 119.11 37.7218 119.11 35.6646C119.11 31.3326 116.35 29.1666 110.82 29.1666C110.36 29.1666 109.36 29.226 107.81 29.3348V29.315Z" fill="white"/>
<path d="M53.07 41.8263C54.88 41.9647 56.38 42.034 57.59 42.034C66.98 42.034 71.68 37.7515 71.68 29.1864C71.68 24.6665 70.72 21.4027 68.8 19.4148C66.89 17.4169 63.79 16.418 59.53 16.418C57.21 16.418 55.04 16.4872 53.04 16.6257C52.95 20.5324 52.91 24.3797 52.91 28.1677C52.91 33.3107 52.97 37.8602 53.08 41.8164L53.07 41.8263ZM49.22 43.7252C49.33 40.7087 49.39 35.9118 49.39 29.3249C49.39 22.7379 49.33 17.7433 49.22 14.8751H52.44C53.01 14.8751 54.22 14.8553 56.07 14.8059C57.92 14.7663 59.49 14.7366 60.78 14.7366C65.12 14.7366 68.32 15.4092 70.35 16.7542C74.02 19.1675 75.85 23.0445 75.85 28.3853C75.85 33.3601 74.41 37.1481 71.53 39.779C68.66 42.3999 64.46 43.7153 58.93 43.7153H52.66C52.71 43.7153 51.57 43.7153 49.22 43.7153V43.7252Z" fill="white"/>
<path d="M30.14 43.7252C30.34 37.9789 30.44 33.1821 30.44 29.3249C30.44 25.0127 30.34 20.1961 30.14 14.8751C30.74 14.9938 31.42 15.0432 32.16 15.0432C32.9 15.0432 33.57 14.9938 34.14 14.8751C33.85 21.828 33.71 26.8325 33.71 29.8688C33.71 32.9052 33.81 36.8119 34.01 41.7373C34.58 41.7669 35.56 41.7768 36.93 41.7768C40.73 41.7768 43.66 41.5493 45.69 41.1043V41.7373C45.66 42.0142 45.65 42.2417 45.65 42.4098C45.65 42.5582 45.67 42.7659 45.69 43.0428V43.7153L35.73 43.5868C33.72 43.5868 31.86 43.6263 30.14 43.7153V43.7252Z" fill="white"/>
<path d="M75.05 43.7252C80.11 32.8063 84.54 23.0148 88.32 14.3212H89.13C93.14 24.172 97.29 33.9733 101.58 43.7252C100.81 43.5769 100.11 43.5175 99.48 43.5175C98.85 43.5175 98.09 43.5868 97.29 43.7252C94.62 35.6844 91.02 27.8809 87.63 20.117C83.43 29.6809 81.6 33.2415 77.88 43.7252C77.39 43.5769 76.92 43.5175 76.46 43.5175C76.14 43.5175 75.68 43.5868 75.05 43.7252Z" fill="white"/>
<path d="M0 43.7252C5.06 32.8063 9.49 23.0148 13.27 14.3212H14.08C18.09 24.172 22.24 33.9733 26.53 43.7252C25.76 43.5769 25.06 43.5175 24.43 43.5175C23.8 43.5175 23.04 43.5868 22.24 43.7252C19.57 35.6844 15.97 27.8809 12.58 20.117C8.38 29.6809 6.55 33.2415 2.83 43.7252C2.34 43.5769 1.87 43.5175 1.41 43.5175C1.09 43.5175 0.63 43.5868 0 43.7252Z" fill="white"/>
<path d="M148.35 43.7252C153.42 32.8063 157.84 23.0148 161.63 14.3212H162.44C166.45 24.172 170.6 33.9733 174.89 43.7252C174.12 43.5769 173.42 43.5175 172.79 43.5175C172.16 43.5175 171.4 43.5868 170.6 43.7252C167.93 35.6844 164.33 27.8809 160.94 20.117C156.74 29.6809 154.91 33.2415 151.19 43.7252C150.7 43.5769 150.23 43.5175 149.77 43.5175C149.46 43.5175 148.99 43.5868 148.36 43.7252H148.35Z" fill="white"/>
</g>
<defs>
<clipPath id="clip0_1_12">
<rect width="250" height="46" fill="white"/>
</clipPath>
</defs>
</svg>
