<svg width="100" height="50" viewBox="0 0 100 50" fill="none" xmlns="http://www.w3.org/2000/svg">
<g clip-path="url(#clip0_6_24)">
<path d="M99.8694 25.655C99.9498 25.44 100 25.2251 100 25.0101C100 24.7746 99.9598 24.5494 99.8694 24.3446C99.789 24.1296 99.6584 23.9454 99.4976 23.7816L76.6379 0.49123C76.0048 -0.153733 74.8895 -0.153733 74.2564 0.49123C73.9349 0.81883 73.7641 1.24881 73.7641 1.70949C73.7641 2.17018 73.9349 2.60016 74.2564 2.92776L94.2424 23.2902H1.6881C0.763666 23.2902 0 24.058 0 25.0101C0 25.9622 0.753617 26.73 1.6881 26.73H94.2424L74.2564 47.0924C73.9349 47.42 73.7641 47.85 73.7641 48.3106C73.7641 48.7713 73.9349 49.2013 74.2564 49.5289C74.8995 50.1841 76.0048 50.1739 76.6379 49.5289L99.5076 26.2283C99.6684 26.0645 99.789 25.8803 99.8794 25.6653L99.8694 25.655Z" fill="#F29100"/>
</g>
<defs>
<clipPath id="clip0_6_24">
<rect width="100" height="50" fill="white"/>
</clipPath>
</defs>
</svg>
